<svg width="1848" height="288" viewBox="0 0 1848 288" xmlns="http://www.w3.org/2000/svg"><g fill="#FFF" fill-rule="nonzero"><path d="M172.745 36.423a87.654 87.654 0 0135.339 54.642l-52.84 10.837a43.572 43.572 0 00-17.072-29.244 54.514 54.514 0 00-34.176-11.051c-12.708 0-22.906 3.053-30.596 9.158a28.216 28.216 0 00-11.657 22.864c0 14.246 8.669 23.027 26.006 26.344l55.93 11.234c21.499 4.64 38.265 13.228 50.3 25.764 12.034 12.536 18.062 28.746 18.082 48.629 0 25.052-9.454 44.945-28.362 59.679-18.909 14.734-43.896 22.1-74.96 22.1-28.72 0-53.258-6.654-73.615-19.964C15.201 254.785 2.238 233.685 0 210.24l55.532-11.234c6.73 28.186 26.108 42.269 58.132 42.248 14.748 0 26.14-3.052 34.176-9.158a28.674 28.674 0 0012.055-23.627 24.115 24.115 0 00-6.823-18.316c-4.528-4.395-12.36-7.753-23.498-10.073l-55.073-10.44C28.913 160.054 6.13 135.247 6.15 95.216 5.502 73.005 15.432 51.8 32.92 38.041 50.79 23.449 74.868 16.153 105.16 16.153c26.394.082 48.923 6.838 67.586 20.27zM309.05 9.102a29.79 29.79 0 018.935 21.368 28.358 28.358 0 01-8.935 21.369c-12.646 11.35-31.84 11.35-44.486 0a28.63 28.63 0 01-8.72-21.369c.256-12.46 7.941-23.565 19.529-28.219 11.588-4.654 24.84-1.958 33.677 6.85zm-47.79 272.6V88.348h51.278v193.354H261.26zM510.617 273.093c-17.868 9.545-34.706 14.327-50.514 14.348-23.804 0-42.447-6.4-55.93-19.201-13.482-12.801-20.213-32.134-20.193-58V130.2h-41.55V88.348h41.55V29.829h51.28v58.519h63.302V130.2H435.26v76.315c0 22.183 9.454 33.284 28.363 33.305a69.419 69.419 0 0032.217-9.158l14.778 42.431zM717.232 198.792H569.637a56.982 56.982 0 0017.287 32.724 44.88 44.88 0 0031.269 12.211c21.988 0 38.04-8.527 48.158-25.581l45.894 9.707a93.123 93.123 0 01-36.899 44.538 106.292 106.292 0 01-57.092 15.263c-26.527.574-52.114-9.81-70.708-28.694-19.132-19.191-28.699-43.775-28.699-73.752 0-29.977 9.618-54.612 28.852-73.904 18.743-19.022 44.53-29.472 71.259-28.878a94.5 94.5 0 0168.168 27.81c19.03 18.478 29.066 42.177 30.106 71.095v17.461zm-128.014-62.396a43.162 43.162 0 00-18.051 26.345h93.623A45.779 45.779 0 00647.687 136a48.112 48.112 0 00-28.73-8.914 52.096 52.096 0 00-29.739 9.31zM791.397 220.1c2.325 17.562 15.655 26.344 39.989 26.344 7.76.41 15.467-1.48 22.151-5.434a16.173 16.173 0 008.139-13.95c0-8.507-7.14-14.317-21.417-17.43l-39.592-8.151c-17.623-3.603-31.157-10.186-40.6-19.751A48.174 48.174 0 01745.9 146.47a57.062 57.062 0 0121.417-46.125c14.38-11.865 33.604-17.807 57.673-17.827 22.437 0 41.274 5.3 56.511 15.904a64.557 64.557 0 0127.781 41.454l-48.953 9.677a27.462 27.462 0 00-11.443-19.353 41.526 41.526 0 00-25.456-7.357c-9.301 0-16.032 1.872-20.194 5.617a17.414 17.414 0 00-6.119 13.37c0 8.242 5.834 13.666 17.501 16.27l46.2 10.074c16.583 3.602 29.21 10.257 37.878 19.965a50.272 50.272 0 0113.003 34.677c0 20.921-7.7 36.937-23.1 48.049-15.4 11.111-36.052 16.667-61.957 16.667-23.028 0-42.701-4.721-59.02-14.164-15.86-8.724-26.34-24.74-27.964-42.737l51.738-10.531zM1146.372 281.702h-51.279v-15.263c-17.358 13.96-38.714 20.94-64.068 20.94s-47.628-9.697-66.822-29.091c-18.867-19.354-28.311-43.775-28.332-73.263-.02-29.489 9.495-53.96 28.546-73.416 19.031-19.496 41.234-29.254 66.608-29.275 25.374-.02 46.73 7.103 64.068 21.369V88.195h51.279v193.507zm-67.984-54.948a55.248 55.248 0 0016.705-41.668 55.918 55.918 0 00-16.705-41.852 53.51 53.51 0 00-38.43-16.27 51.89 51.89 0 00-39.04 15.904c-10.198 10.603-15.298 24.675-15.298 42.218 0 17.542 5.1 31.564 15.298 42.065a52.29 52.29 0 0039.04 15.69 53.819 53.819 0 0038.43-15.965v-.122zM1385.602 281.702h-51.279v-17.43c-15.502 15.507-35.828 23.26-60.978 23.26-23.293 0-42.059-7.56-56.296-22.68-14.238-15.122-21.377-34.689-21.417-58.703V88.348h51.4V195.19c0 13.717 3.56 24.696 10.679 32.938a35.804 35.804 0 0028.546 12.424c32.126 0 48.178-22.223 48.158-66.67V88.41h51.279l-.092 193.293zM1577.837 203.035l47.393 12.028a90.194 90.194 0 01-35.155 52.688c-41.598 29.414-98.17 25.694-135.54-8.913-20.07-19.11-30.106-43.653-30.106-73.63 0-29.977 10.035-54.581 30.106-73.813a102.409 102.409 0 0173.43-28.877 100.05 100.05 0 0160.795 19.567 97.686 97.686 0 0136.317 51.742l-49.32 13.95c-6.487-25.58-22.417-38.371-47.791-38.371a51.8 51.8 0 00-39.01 15.507c-9.975 10.359-14.962 23.79-14.962 40.295 0 16.505 4.987 29.875 14.962 40.112 9.943 10.195 22.977 15.263 39.01 15.263 24.986.04 41.61-12.475 49.871-37.548zM1846.99 198.792h-147.595a57.165 57.165 0 0017.287 32.724 44.94 44.94 0 0031.269 12.211c22.009 0 38.061-8.527 48.158-25.581l45.894 9.707a93.123 93.123 0 01-36.899 44.538 106.17 106.17 0 01-57.092 15.263c-26.527.574-52.113-9.81-70.707-28.694-19.153-19.11-28.73-43.653-28.73-73.63 0-29.977 9.648-54.58 28.944-73.812 18.743-19.022 44.53-29.473 71.258-28.878a94.5 94.5 0 0168.168 27.718c19.03 18.478 29.066 42.177 30.107 71.095l-.062 17.34zm-127.983-62.396a43.285 43.285 0 00-18.052 26.345h93.747A45.778 45.778 0 001777.629 136a48.204 48.204 0 00-28.76-8.914 52.096 52.096 0 00-29.862 9.31z"/></g></svg>