<svg width="169" height="96" viewBox="0 0 169 96" xmlns="http://www.w3.org/2000/svg"><path d="M145.18 1.36l.04.152h7.785l-.01-.151h-7.814zM69.259 62.016c2.613-2.573 5.473-4.952 6.858-8.492l-6.858 8.492zm13.4-29.32c0-.505.041-1.014-.006-1.515-.758-8.063-7.362-10.146-13.26-8.503-1.923.535-3.544 1.58-5.092 2.718-1.38 1.015-2.754 2.138-3.821 3.462-2.662 3.307-4.18 7.203-4.996 11.332-1.133 5.745-1.363 11.489.812 17.087 1.274 3.277 3.15 6.09 6.239 7.983.888.544 1.46.388 2.147-.272 5.038-4.848 9.672-10.023 13.099-16.17 2.797-5.018 4.828-10.275 4.878-16.123zm46.11-28.01l12.386-2.862a132.624 132.624 0 00-9.65 1.813c-.938.21-1.81.712-2.713 1.078-1.922-.038-3.379 1.08-4.884 2.071l4.861-2.1zM61.324 67.944c-5.092-3.201-8.248-7.67-9.708-13.168-2.791-10.51-1.178-20.353 5.532-29.043 3.15-4.082 7.485-6.633 12.648-7.395 4.359-.642 8.17.811 11.393 3.754 3.206 2.927 5.274 6.58 5.621 10.889.297 3.692-.03 7.443-1.446 10.954-1.134 2.809-2.298 5.617-3.685 8.305-.835 1.619-2.074 3.044-3.214 4.49-2.68 3.399-5.41 6.758-8.077 10.425.999-.286 2.04-.472 2.989-.877 3.06-1.306 5.51-3.464 7.699-5.905 5.273-5.881 8.793-12.84 12.119-19.915 2.892-6.155 5.835-12.285 9.797-17.856 7.759-10.912 18.13-17.867 31.228-20.79C142.242.022 150.362.328 158.484.36c3.056.012 6.115-.236 9.172-.36.167-.006.337.044.693.093l-.668.626L169 1.793c-.38.45-.674 1.07-1.158 1.313-.718.36-1.559.568-2.365.641-2.215.2-4.44.274-6.659.438-2.533.187-5.062.431-7.596.616-.615.045-1.248-.12-1.86-.06-2.93.286-5.876.485-8.774.967-2.602.434-5.13 1.316-7.73 1.772-1.98.348-3.8 1.046-5.61 1.835-4.356 1.9-8.508 4.047-12.102 7.31-5.042 4.575-9.055 9.94-12.55 15.673-2.082 3.417-3.422 7.28-5.221 10.88-1.859 3.717-3.84 7.374-5.825 11.026-1 1.84-1.969 3.735-3.24 5.381-1.624 2.102-3.486 4.03-5.349 5.93-1.208 1.234-2.49 2.46-3.935 3.382-3.354 2.14-7.05 2.79-10.925 1.711-1.183-.329-2.026-.219-2.984.621-7.09 6.217-14.998 11.189-23.599 15.015-5.132 2.284-10.28 4.594-15.59 6.396-6.847 2.324-13.95 3.62-21.245 3.316-1.18-.049-2.377-.278-3.508-.618-.47-.142-.788-.793-1.175-1.212.424-.284.825-.751 1.279-.81.774-.1 1.582.047 2.374.11.535.041 1.074.205 1.599.162 5.657-.468 11.18-1.657 16.555-3.437 14.002-4.638 26.83-11.442 38.143-20.982.417-.35.814-.725 1.374-1.226z" fill="#000" fill-rule="evenodd"/></svg>