<svg width="136" height="326" viewBox="0 0 136 326" xmlns="http://www.w3.org/2000/svg"><g fill="#000" fill-rule="evenodd"><path d="M49.317 175.421c-.57-.64.757-.515.087-1.051-.635-.51-.256-1.18-.447-1.744-.095-.282-.29-.304-.442-.118-.49.726.261 1.687-.39 2.323l-.957.197c.342 1.082 1.59 1.37 1.848 2.378-.424 1.604-1.68 1.315-2.803 1.35-.121.004-.234.237-.351.366.464.633 1.27-.098 1.621.31.949 1.432-.882.962-.985 2.139.057-.159.761-.213.402.234-.507.404-1.281-.209-1.727.446.49 1.74.042 3.097-1.75 5.307l.45.451c-.238.571-1.05.083-1.268.689-.254.632.417.855.574 1.307-1.788 2.93-1.788 2.93-1.875 4.738l-2.692 2.228c-.465.995.572 1.405.674 2.048-.927.87-1.819 1.835-1.748 3.112.052.93-.43 1.545-.698 2.292-.63 1.762-1.3 3.511-1.895 5.284-.104.305-.203.818.505.996.55-.904 1.095-1.803 1.433-2.906.723-2.35 1.476-4.728 2.575-6.914 1.106-2.207 1.447-4.75 3.093-6.734.356-.43.552-1.254.772-1.9 1.204-3.547 2.884-6.897 4.563-10.252.913-1.825 2.273-3.535 2.389-5.712.01-.19-.092-.384-.143-.577l-.815-.287m-18.002 7.141l.86.66c.363-1.177.304-2.195-.553-3.198h1.045c.114-.169.349-.364.317-.493-.271-1.1.226-2.081.711-2.91.568-.97 1.638-1.663 1.232-3.021-.028-.095-.037-.268.015-.305 2.028-1.43 2.185-4.1 3.839-5.778.542-.551.6.217 1.12.343.187-2.376-.127-4.905 2.062-6.991.034-.004.537-.065 1.025-.122.309-.16.285-.27.048-.468-.686-.578-.71-1.358-.16-1.933 1.64-1.715 2.285-3.974 3.327-5.997 1.921-3.727 4.24-7.205 6.332-10.82a177.507 177.507 0 016.692-10.665c3.105-4.589 6.105-9.242 9.328-13.76 2.084-2.924 4.185-5.882 6.106-8.95 1.828-2.924 4.17-5.52 6.194-8.33 2.374-3.297 5.1-6.32 7.314-9.752 1.107-1.713 2.811-3.021 4.045-4.73 4.575-6.34 10.323-11.624 15.806-17.142.992-.996 1.947-2.054 3.827-2.037-.614 1.752-1.196 3.28-2.443 4.504-1.827 1.793-3.625 3.616-5.436 5.427-.904.904-2.004 1.69-2.66 2.748-.657 1.06-1.648 1.773-2.313 2.808-.658 1.022-1.579 1.854-2.305 2.87-1.254 1.759-2.858 3.289-4.294 4.93-1.836 2.098-3.12 4.553-4.954 6.64-1.873 2.132-3.43 4.541-5.168 6.798-.56.726-1.392 1.194-1.339 2.36.021.455-.684 1.004-1.147 1.406-1.658 1.436-2.655 3.355-3.836 5.14-1.217 1.84-2.404 3.7-3.625 5.537-3.501 5.27-6.916 10.604-10.559 15.776-2.311 3.284-3.919 6.987-6.364 10.174-.057 1.5-1.806 1.843-2.157 3.28-.269 1.092-.689 2.243-1.618 3.192-.667.681-1.494 1.356-1.896 2.324-.417 1-.86 1.998-1.384 2.945-.531.962-1.089 1.938-1.8 2.766-.746.867-.96 2.003-1.616 2.84-.374.474-.084 1.406-.898 1.447-.765.04-.881.437-.785 1.019.185 1.112-.557 1.9-.922 2.803-.501.189-1.073-.2-1.61.312 1.018 1.843-.812 3.358-.674 5.16-1.924.329-1.12 2.312-1.991 3.28-.899 1-.752 2.44-1.558 3.522-1.307 1.757-1.941 3.878-2.864 5.845-.883 1.877-1.789 3.757-2.859 5.529-.448.744-.344 1.108.38 1.713-2.252.93-1.04 4.333-3.85 4.98.198.313.619.697.545.91-.672 1.959-1.027 4.03-2.12 5.843-.877 1.457-1.656 3.025-1.622 4.738.015.854-.47 1.484-.773 1.926-1.944 2.824-2.219 6.157-3.104 9.291-.7 2.48-1.59 4.887-2.404 7.326-1.002 3.006-2.204 5.945-2.787 9.098-.358 1.929-1.253 3.752-1.73 5.667-.34 1.363-1.107 2.681-.774 4.159.249 1.104-.886 1.788-.772 2.948.041.424-.794 1.328-.466 1.935.412.764-1.364 1.11-.198 1.798-.43 1.381-.614 2.916-1.35 4.11-1.228 1.994-1.021 4.264-1.637 6.365-.988 3.375-.625 7.05-1.988 10.385.637 1.53-1.286 3.01-.047 4.624.296.386-.547.926-.645 1.611-.528 3.656-1.447 7.272-1.178 10.995.058.812-1.105 1.568-.066 2.36-1.063.794-.527 1.937-.607 2.93-.077.954.32 2.101-.083 2.843-1.006 1.851.492 3.499.1 5.272-.329 1.483.401 3.126-.653 4.543-.152.206-.158.747.001.926 1.068 1.188.69 2.633.564 3.908-.22 2.233.93 4.258.739 6.464-.022.264.573.582 1.07 1.055.05-2.121.658-4.077-.321-6.06-.256-.515-.146-1.23-.148-1.853-.01-3.733.074-7.469-.041-11.199-.052-1.687.989-3.12.725-4.863-.237-1.564-.481-3.363.065-4.747.606-1.532.05-3.145.751-4.482.76-1.447.08-2.917.435-4.309.761-2.982.606-6.114 1.345-9.052.614-2.435.892-4.933 1.634-7.316.172-.554-.926-.861-.014-1.422.548-.337.167-1.185.2-1.799.03-.563.825-.705.654-1.334-.191-.709.551-1.122.598-1.66.132-1.528.312-3.023.59-4.546.538-2.969 1.398-5.842 2.057-8.77 1.392-.92-.008-2.588 1.076-3.743.802-.854.595-2.305.872-3.463a127.975 127.975 0 013.297-11.424c.893-2.633 2.084-5.137 2.463-7.957.162-1.2.878-2.43 1.424-3.544 1.58-3.227 2.4-6.696 3.557-10.048.557-1.61 1.422-3.043 2.067-4.589 1.058-2.547 1.58-5.29 3.065-7.702.97-1.577.907-3.729 2.543-5.015-.738-1.791 1.229-2.67 1.43-4.229.199-1.525 1.424-2.772 1.889-4.321.42-1.401 1.19-2.707 1.886-4.012.699-1.31 1.498-2.565 2.253-3.847h1.494c-.267-.753-.86-1.4-.57-2.15.232-.514.746-.303 1.084-.503.07-.187.2-.372.196-.555-.047-2.204.864-4.246 2.02-5.863 2.055-2.877 3.241-6.16 4.96-9.181 2.015-3.544 4.173-7.011 6.108-10.589 2.28-4.22 5.167-8.044 7.455-12.256 1.579-2.901 3.636-5.546 5.51-8.282 2.395-3.494 4.953-6.882 7.197-10.47 1.827-2.921 4.025-5.559 5.975-8.382 1.963-2.842 3.914-5.71 6.19-8.346 1.99-2.302 3.643-4.892 5.481-7.328 2.028-2.686 4.242-5.22 6.248-7.926 1.338-1.805 2.825-3.602 4.435-5.232 2.774-2.807 5.573-5.59 8.373-8.37.354-.353.616-.9 1.357-.775.84.782.377 1.65-.303 2.42 1.508.41 1.661-1.178 2.723-1.163.557.064.727.675 1.166.954-1.046.36.188 1.18-.31 1.57-.535.418-.133 1.315-.894 1.559.078.761.978.108 1.264 1.008-.98 1.264-2.05 2.722-3.2 4.112-.786.947-1.736 1.713-2.3 2.89-.466.97-1.92 1.384-1.63 2.865.052.27-.47.29-.687.436-1.503 1.016-2.896 3.121-3.78 5.321-.483 1.204-1.303 2.287-2.042 3.288-1.328 1.801-2.81 3.492-4.013 5.4-.195.31-.572.52-.96.725-1.693.888-2.811 2.278-3.228 4.214-.215.998-.623 1.29-1.802 2.407-.568.541-1.006 1.277-1.466 1.914-1.891 2.617-3.473 5.44-5.4 8.01-1.167 1.556-1.037 3.79-2.836 4.924.354 1.463-1.028 1.926-1.61 2.857-1.428 2.28-3.357 4.31-4.068 6.94-.253.94-1.865.36-1.362 1.632-1.543 2.093-2.397 4.594-3.89 6.693-.573.805-1.65 1.47-1.8 2.397-.287 1.764-2.466 2.544-2.136 4.518-1.772.781-1.801 2.57-2.478 4.036-.524 1.132-1.744 1.79-1.952 3.327-.175 1.29-1.152 2.486-1.833 3.692-.681 1.211-1.763 2.197-2.032 3.64-1.604.284-1.622 1.856-2.164 2.895-.584 1.118-1.517 2.161-1.534 3.51-.014 1.05-1.913.833-1.346 2.312.35.912-.67 1.605-1.013 2.424-.33.789-.4 1.853-1.71 1.912-.374.016-.788.63-1.059 1.049-1.078 1.665-1.12 3.993-3.214 5.011.136 1.212-.991 2.077-1.071 3.048-.258 3.157-2.174 5.554-3.498 8.17-.98 1.937-1.06 4.354-2.92 5.84.314 1.678-1.264 2.706-1.457 4.192-.224 1.736-1.657 2.95-1.928 4.644-.272 1.697-1.344 3.073-1.84 4.682-.083.27-.432.459-.764.79.817 2.843-2.211 4.992-1.755 8.336.621-1.238 1.045-2.082 1.697-3.385.16 2.96-1.531 4.905-1.99 7.203-.454 2.267-1.622 4.426-2.403 6.663-.782 2.233-1.866 4.387-2.4 6.673-.548 2.335-1.586 4.487-2.11 6.824-.52 2.313-1.36 4.552-2.096 6.942l-1.438.118c-1.306 1.588-.594 3.746-1.528 5.45-.134.245.116.74-.04.931-1.425 1.74-1.005 4.048-1.897 5.943-.92 1.958-.476 4.193-1.266 6.196-.917 2.328-.966 4.885-1.804 7.251-.434 1.225.212 2.701-.772 3.842.387 1.9-.396 3.68-.709 5.483-.28 1.622-.677 3.205-.58 4.863-1.54 1.222.226 3.337-1.242 4.626-.212.187-.058.823-.025 1.247.207 2.705-.607 5.28-.996 7.909-.113.765.675 1.36.358 2.178-1.26 3.252-.36 6.653-.662 9.971-.128 1.396.228 2.618.937 3.784.152-.123.3-.247.475-.39 1.756.449 2.142 1.84 1.738 3.264-.336 1.183-1.634 1.1-2.748.968-.558 1.085-1.012 2.364-2.63 1.948-.917-.237-1.566.319-2.301.67-.786-.437-1.55-1.194-2.35-1.236-1.784-.094-2.623-1.335-3.286-2.541-.698-1.275-1.054-2.752-1.401-4.223-.957-4.065-.472-8.154-.56-12.23-.087-4.051.006-8.106-.033-12.159-.013-1.453.9-2.678.724-4.223-.156-1.372-.589-2.946.57-4.207-.426-2.318.898-4.437.687-6.78-.267-2.97.611-5.86 1.261-8.737.146-.642.113-1.403.351-1.873.384-.756.334-1.482.216-2.131-.24-1.326.64-2.343.808-3.566.17-1.25.632-2.517.486-3.627.536-.48 1.108-.128 1.338-.916-1.066-1.166-.571-2.517-.074-4.03a46.488 46.488 0 001.995-9.105c.114-.967.526-1.904.856-2.837.843-2.372 1.698-4.737 1.72-7.546.346-.256.855-.633 1.166-.86.063-.657-.65-.556-.367-1.22.5-1.18 1.154-2.35 1.083-3.714-.01-.199.031-.41.095-.599.205-.598 1.814-.761.553-1.811 1.134-.454.277-1.738 1.058-2.46.52-.48.576-1.526.71-2.207.165-.825.704-1.452.793-2.266.171-1.592 1.818-2.788 1.218-4.474.28-.576.802-.343 1.133-.571-.229-1.057.644-3.95 1.677-5.528l.882.423c.07-.21.239-.445.18-.578-.408-.903-1.215-1.77-.095-2.723.142-2.241 1.206-4.254 2.154-6.136.833-1.65 1.263-3.34 1.77-5.035.487-1.621 1.957-2.809 1.946-4.62 1.747-1.76 1.747-4.464 3.433-6.419M54.124 88.497c.124 1.286-1.34 2.415-.376 3.783.834.358 1.046-.495 1.675-.792-.165-1.9.606-3.41 1.53-5.091.913-1.66 2.327-2.964 3.014-4.814.647-1.741 1.96-3.243 3.022-4.82 1.072-1.591 2.198-3.143 3.294-4.717.866-1.239 1.61-2.581 2.602-3.71 2.366-2.695 4.396-5.637 6.568-8.475 1.127-1.474 2.497-2.746 3.648-4.239 1.976-2.561 4.461-4.728 6.462-7.276 2.154-2.74 4.84-4.978 7.007-7.657 4.886-6.038 10.8-11.05 16.135-16.636.866-.908 1.8-1.76 2.67-2.68 1.912-2.02 3.72-4.258 6.473-5.187 1.06-.357.537-1.564 1.637-2.079.957-.447 2.05-1.385 2.79-2.41.751-1.04 1.882-1.704 2.781-2.568 1.082-1.04 2.353-1.985 3.534-3.085 1.187-.157 2.435-.298 3.672-.514.21-.036.362-.397.517-.58-.245-.608-1.235.108-1.2-1.156.842-1.08 1.934-2.255 3.644-2.879.322.126.073.65.291.957.206.288.708.448.175.92-.58.514.297.566.335.932-.661.688-1.607-.005-2.325.398-.923.894.688 1.183.381 2.04-.627.61-1.567.884-2.473 1.31v1.185c-1.528 1.605-4.081 1.977-4.855 4.336-.37 1.121-1.959.837-2.304 2.202-.241.953-1.57 1.155-2.411 1.605-.586.137-.667-.48-1.155-.577-.721 1.219.734 1.464 1.072 2.205-.523.52-1.05 1.047-1.577 1.575l-.674-.606c-.591.745-1.781.644-2.185 1.548-.213.653.267.964.594 1.323l-.936.936c-.223-.203-.447-.407-.679-.616-.442 1.667-.442 1.667-1.815 3.109-.78-.03.003-1.338-1.508-1.123-.83.405-.172 2.715-2.038 2.736.224.323.444.636.804 1.152-1.178.921-2.06 2.171-3.16 2.996-1.241.932-1.85 2.34-3.206 3.243h-1.945c-.03 1.086-1.312 1.55-1.454 2.482-.476 3.133-2.994 4.64-5.038 6.444-.749.662-1.702 1.06-2.043 2.096-.11.332-.228.538-.62.537-1.661-.001-2.434.904-2.603 2.502-.085.808-.603 1.306-1.455 1.33-1.379.039-1.792 1.154-2.383 1.79.054 1.145 1.004.473 1.286 1.182-.797.152-.78 1.894-2.213.963-.09-.058-.82.484-.834.767-.055 1.132-.504 1.984-1.4 2.634.292 1.555-.913 2.29-1.832 3.063-1.224 1.029-1.94 2.446-2.83 3.672-1.11 1.527-2.257 2.834-3.889 3.754-.454.256-.828.65-1.137.898.156 1.323-.122 2.15-.853 3.086-2.416 3.097-4.936 6.142-6.759 9.659-.636 1.226-1.776 1.644-2.968 1.772-.78.082-1.028.654-1.401.915.738 1.992-1.577 3.44-.642 5.166-.905.617-1.674.175-2.47.477l-1.482 5.31c.246.573 1.078.059 1.298.95-.166.758-1.14 1.472-.438 3.042-.756-.671-.98-.872-1.2-1.066-.556.237.006 1.103-.742 1.236-.903.132-1.131-.784-1.701-1.163l-2.536 1.287c-.825-.744-.36-1.195.135-1.648-.374-.452-.608-1.088-1.42-1.018-.834.005-.132.98-.787 1.238-1.502-1.668.533-3.575-.583-5.26l1.692-1.24c-.28-.31-.416-.46-.663-.736.48-.946.985-1.958 1.509-2.959.023-.044.204-.006.31-.006.444-.017.658.196.641.64"/><path d="M54.124 88.497c.017-.444-.197-.657-.64-.64-.18-2.291 1.34-3.96 2.32-5.746 1.63-2.968 3.642-5.733 5.47-8.589 1.351-2.11 3.107-4.053 4.62-6.112 2.053-2.796 4.438-5.322 6.393-8.204 1.156-1.701 2.755-3.1 4.116-4.662 1.919-2.199 3.536-4.675 5.766-6.622 1.155-1.007 2.327-2.034 3.02-3.526.3-.647.95-1.268 1.92-1.468.478-.099.611-1.154 1.124-1.708 5.102-5.484 10.24-10.93 15.569-16.197 3.296-3.258 6.867-6.21 10.229-9.397a96.077 96.077 0 018.472-7.178c1.137-.85 2.052-2.282 3.6-2.563.576.632.412 1.117-.09 1.426-3.22 1.97-5.954 4.506-8.497 7.257-.854.926-2.11 1.237-2.945 2.222-.714.839-1.408 1.73-2.62 2.128-.723.238-1.495 1.037-1.771 1.765-.458 1.208-1.571 1.67-2.245 2.552-.701.921-1.617 1.456-2.416 2.172-1.158 1.037-1.71 2.734-3.393 3.288-.11 1.605-2.025 1.667-2.484 2.752-.543 1.286-1.784 1.65-2.564 2.587-.736.882-1.365 1.904-2.304 2.657-.993.795-1.83 1.785-2.733 2.688-.905.905-1.82 1.798-2.71 2.718-.857.882-1.544 1.948-2.338 2.83-1.746 1.939-3.145 4.156-5.094 5.943-2.105 1.93-3.745 4.3-5.49 6.576-1.74 2.268-3.43 4.663-5.456 6.639-1.523 1.485-2.09 3.651-3.93 4.792-.124 1.58-1.72 2.174-2.389 3.473-.498.966-1.236 2.172-2.501 2.824-.625.322-.626 2.02-1.21 2.22-1.12.386-.821 1.14-1.136 1.8-.24.505-.424 1.124-.822 1.582-1.932 2.212-3.208 4.797-4.311 7.487-.053.13-.348.159-.53.234"/></g></svg>