<svg width="288" height="359" viewBox="0 0 288 359" xmlns="http://www.w3.org/2000/svg"><g fill="#000" fill-rule="evenodd"><path d="M43.792 68.47C55.664 44.71 70.218 22.684 85.598 1.247c1.758.451.214 1.546.84 2.237.997.46 2.105-1.94 3.387.195 1.178 1.962.48 3.437-.35 4.959-4.366 8.01-10.672 14.776-14.477 23.224-1.303 2.89-1.872 6.427-5.083 8.677-1.977 1.385-1.511 4.886-3.259 7.192-1.093 1.445-1.701 3.465-2.918 5.095-4.848 6.489-7.642 13.828-8.439 21.895-.143 1.453-.748 2.768-2.095 2.813-3.673.123-7.321 1.645-10.92-1.57-2.614-2.333-2.857-4.446-2.118-7.26 1.783-6.779 5.318-12.76 8.788-18.738 4.058-6.99 8.667-13.652 12.967-20.488C67.703 20.283 74.177 11.6 80.317 2.674 80.9 1.825 81.46.07 82.742.844c.965.58-.051 1.97-.602 2.814-3.47 5.327-7.187 10.474-10.993 15.576-3.648 4.889-6.706 10.245-9.752 15.551-4.922 8.578-10.346 16.868-14.8 25.713-1.27 2.521-2.526 5.076-2.803 7.973M25.027 171.013c-2.23 1.792-3.844-.998-4.549-1.565-1.908-1.532-4.899.049-5.644-1.765-1.128-2.747-3.56-5.072-2.55-8.752 1.95-7.117 4.905-13.817 7.653-20.612 1.992-4.926 3.891-9.9 6.801-14.403 1.298-2.008 2.79-3.779 4.991-4.788 2.26-1.036 4.242-1.11 6.418.752 1.61 1.378 3.685 2.283 5.175 3.902 1.419 1.54 2.545 3.15.872 5.248-1.174 1.472-.962 3.4-1.553 5.079-2.378 6.742-3.282 14.003-7.096 20.237-2.828 4.624-4.917 9.6-7.097 14.538-.625 1.414-1.229 3.122-3.42 2.129M165.659 120.518l-1.19 2.678c.388.506.746.204 1.13.096.79-.223 1.062-1.735 2.018-1.13 1.157.73-.331 1.606-.242 2.472 1.266.294 1.603-1.27 2.636-1.313 1.6 2.461.76 4.443-.73 6.651-4.05 6.001-7.56 12.308-9.922 19.21-.892 2.606-4.23 3.879-4.295 6.904-.082 3.837-1.873 7.168-3.885 9.911-3.475 4.738-4.218 10.313-6.287 15.463-.582 1.45.216 3.234-1.215 4.421-.463.384-1.19 1.258-1.49.521-1.036-2.518-3.053-1.305-4.722-1.722-3.1-.776-3.71-3.815-4.012-6.488-.476-4.212.74-8.286 2.449-12.041 6.543-14.377 14.152-28.17 23.566-40.893 1.434-1.939 2.72-4.371 6.19-4.74M122.306 63.43c-.719 2.238-1.412 4.58-2.22 6.883-5.112 14.601-11.744 28.519-18.927 42.196-2.754 5.242-5.928 10.274-8.012 15.868-.596 1.603-1.667 2.868-3.579 1.163-.45-.402-1.119-.584-1.715-.795-3.965-1.404-5.514-4.443-4.27-8.567 1.274-4.231 3.632-7.937 5.916-11.652 9.666-15.712 18.759-31.72 25.7-48.866.88-2.173 1.134-2.17 2.677-.516.168.18.508.31.752.287 2.878-.257 3.14 1.853 3.678 3.999M25.38 227.423c-2.635 6.486-6.944 11.449-9.455 17.322-2.538 5.936-5.611 11.658-7.204 17.995 2.31-5.08 4.607-10.167 6.933-15.24 2.67-5.821 6.057-11.23 9.386-16.688 1.67-2.739 3.547-2.599 5.428-1.091 1.836 1.474 2.218 3.955.488 5.685-3.524 3.523-5.505 8.026-6.793 12.448-2.24 7.702-6.181 14.841-7.368 22.884-.274 1.854-1.615 3.435-1.89 5.5-.31 2.323-.431 4.313.72 6.478.669 1.258 2.316 2.913.853 4.316-1.197 1.149-2.95 1.991-4.945.945-.761-.4-1.871-.138-2.823-.17-5.564-.188-8.848-3.814-8.019-9.426 1.113-7.526 3.94-14.565 6.924-21.517 3.911-9.108 8.163-18.041 13.952-26.154.854-1.197 1.57-2.52 3.813-3.287M177.09 298.399c-7.536-.015-9.806-3.315-7.256-9.563 1.993-4.886 5.384-8.913 8.658-12.947 7.642-9.415 15.596-18.56 24.065-27.261 2.07-2.129 4.585-2.89 7.167-3.68.9-.275 2.91-.817 2.833-.032-.16 1.606 1.452 3.064.002 4.782-6.477 7.67-12.257 15.881-18.246 23.93-2.64 3.55-5.562 6.897-8.105 10.512-1.719 2.445-3.477 5.088-1.733 8.38.209.393.1 1.425-.084 1.486-2.976.992-4.775 4.162-7.301 4.393M254.118 127.769c3.87-4.347 6.278-9.635 10.094-13.955 1.124-1.272 2.47-2.376 3.432-3.756 1.586-2.28 3.218-.542 4.267.176 1.019.696 1.496 2.313.404 3.843-4.461 6.248-8.05 13.088-11.063 20.048-2.147 4.962-5.712 9.309-6.456 15.083-.282 2.186-1.776 4.708-2.604 7.156-1.108 3.273-3.383.563-5.139.444-.277-.02-.522-.833-.775-.829-1.081.016-1.717 2.767-2.983.858-1.718-2.59-3.552-5.035-2.35-8.865 1.909-6.08 4.841-11.563 8.05-16.946 4.351-7.297 8.364-14.851 14.556-20.873.456-.443.875-.93 1.363-1.336.504-.42 1.18-.777 1.72-.262.687.656.323 1.45-.277 1.942-5.251 4.3-7.867 10.5-11.546 15.93-.28.414-.464.894-.693 1.342M124.594 235.767c1.62-1.528 3.448-2.891 4.803-4.624 1.582-2.022 3.343-2.466 5.571-1.584 1.325.525 1.043 1.915.915 2.8-.33 2.28-1.679 4.037-3.882 4.849-.527.193-1.32-.205-1.32.747.013 4.655-4.07 7.133-5.824 10.862-.538 1.143-1.542 2.228-2.248 3.4-2.063 3.423-3.75 7.142-8.122 8.453-1.018.305-2.633 1.216-2.083 2.764 1.68 4.72-1.627 7.873-3.503 11.373-3.084 5.751-6.996 11.034-9.856 16.925-.322.664-.522 1.609-1.449 1.379-1.158-.289.377-1.317-.427-1.922-1.443.769-2.71 2.844-4.723.395-.718-.874-1.773.604-2.289 1.532-.393.705-.825 1.369-1.71.85-1.072-.627-.149-1.283.134-1.86 5.154-10.502 11.52-20.27 18.125-29.891l17.45-25.421.438-1.027M180.923 198.487c3.567-5.52 7.161-11.032 11.131-16.293-4.528 3.395-9.987 11.276-11.13 16.293m6.98 8.38c-1.11.323 1.72-3.535-1.305-1.166-.081.063-.24.16-.277.133-1.994-1.548-3.749-1.461-5.573.43-.48.497-4.194-3.667-4.274-4.896-.12-1.857.35-3.614 1.166-5.24 4.61-9.178 11.093-16.803 19.286-22.974 4.013-3.024 8.223-2.694 12.425-.442 2.256 1.21 2.246 2.663.37 4.474a79.967 79.967 0 00-5.622 6.021c-2.04 2.421-3.75 5.079-5.995 7.382-2.95 3.024-3.966 7.313-6.11 10.903-1.187 1.982-2.231 3.993-4.091 5.374M281.395 212.382l-1.183 4.034c.716-.554 1.152-.722 1.283-1.023 1.068-2.44 3.03-1.81 4.575-1.02 1.655.845 2.084 2.753 1.423 4.398-1.08 2.685-2.328 5.344-3.851 7.8-2.102 3.388-4.48 6.663-5.91 10.364-1.497 3.865-3.678 7.626-2.745 12.17.441 2.145-1.35 3.405-3.31 2.528-1.065-.48-2.022-.425-3.075-.372-6.669.333-10.113-4.397-7.522-10.765 3.653-8.975 9.548-16.562 15.687-23.942 1.173-1.41 1.982-3.286 4.628-4.172M38.268 352.55c-.04 2.397 1.982 3.56 2.261 5.473-2.954.404-4.816-1.2-5.463-4.497-.701-3.584.42-6.885 2.163-9.742 3.71-6.078 6.806-12.507 11.99-17.756 2.027-2.054 3.43-5.377 5.401-7.86 5.622-7.086 11.49-13.976 17.287-20.921a15.145 15.145 0 014.138-3.477c.816-.466 1.62-.571 2.379.039.815.656.725 1.494.27 2.302-.678 1.203-1.285 2.472-2.131 3.548-7.833 9.952-15.877 19.742-23.489 29.858-2.965 3.941-5.28 8.47-6.876 13.202-.737 2.186.053 4.584.303 6.883.067.626.94 1.478-.167 1.948-2.127.903-3.91 1.796-2.038 4.568.426.63-.542.963-1.216.978-1.204.028-2.59.01-2.731-1.487-.13-1.372-.907-2.07-2.08-3.059M89.27 189.124c-.69-.49-1.077-.583-1.379.15-1.098 2.672-2.013 5.457-3.447 7.938-.867 1.5-.68 4.593-4.001 3.69-.528-.143-.42.523-.181.9.56.88.212 1.525-.394 2.265-1.035 1.261-1.32 2.661-1.052 4.39.5 3.195-1.723 4.752-4.645 3.441-.35-.158-.974-.69-1.006-.47-.746 5.205-3.567-1.697-4.718.825-.863-.719-1.27-1.633-1.368-2.761-.225-2.588.833-4.776 2.034-6.924 4.548-8.14 11.062-14.637 17.743-20.96 1.61-1.525 4.033-1.607 6.118-2.22 1.224-.36 1.946.653 2.41 1.622.634 1.329-.065 1.467-1.152 1.113-.144 2.383-1.702 4.033-2.981 5.842-.564.797-.928 1.76-1.981 1.16M184.382 58.283l-.787-.584c-1.509 2.39-3.032 4.77-4.504 7.183-.172.282-.507.79.002 1.097.354.214.962.275 1.083-.173.766-2.857 3.448-4.675 4.206-7.523m-11.12 29.013c-.933 1.348-.268 3.653-3.207 3.838-2.125.135-1.742-.892-1.743-1.985-1.827.164-1.096 2.335-2.714 2.765-.666-2.937.417-5.748.285-8.57.02-.083.033-.175.041-.273 2.27-1.948 2.793-4.863 4.05-7.367.52-1.035.701-2.269 1.338-3.207 5.128-7.543 9.3-15.689 14.824-22.998 4.328-5.728 8.162-11.827 12.785-17.346 1.063-1.268 2.003-2.659 4.284-3.988l-4.44 8.035c.034-.096.063-.195.089-.297-3.528 2.794-4.966 7.108-7.987 10.327 1.032.874 1.342-.037 1.838-.14.85-.175 1.374.357 1.703 1.088.162.358.485.886-.087 1.033-2.534.651-1.927 2.754-2 4.421-.083 1.844-1.085 2.856-2.526 3.68-2.22 1.268-3.54 3.067-3.301 5.753l-1.168 1.73c-2.426 1.19-5.897 6.985-5.65 9.433-1.385.072-1.932 2.696-3.817 1.257-.558-1.551-.875-2.286-2.325-.354-1.833 2.438-1.539 5.759-3.75 7.938-.328.322-.306.799.145 1.074.586.36 1.129.097 1.218-.478.39-2.485 2.374-4.233 2.975-6.597.254-.997.523-1.87 1.826-1.673.793 4.605-2.753 7.751-3.97 11.683-.16.521-2.113-.882-1.405.87.345.856 1.646 1.28 2.688.348M245.838 300.02c-.65 1.79-.147 3.408.426 4.96.301.817.529 1.436-.45 1.775-.893.31-1.442-.318-1.759-1-.808-1.736-.608-3.672-.128-5.328 1.83-6.32 5.26-11.805 9.49-16.807 1.255-1.483 2.743-2.827 3.726-4.473 1.787-2.992 4.828-3.845 7.728-4.79 1.354-.443 1.613 1.373 1.891 2.35.159.56-.253 1.646-.752 1.972-4.819 3.151-5.594 9.024-8.863 13.247-1.078 1.392-.584 4.214-1.975 6.06-1.1 1.46-1.692 3.285-3.736 3.98-1.18.4-.287 1.92-.82 2.822-.273.463-.44 1.02-1.022 1.095-.58.076-1.311-.42-1.207-.79.703-2.491-2.238-3.126-2.55-5.073"/><path d="M124.594 235.767c-.146.344-.293.686-.437 1.027-4.233 3.73-7.647 8.227-10.96 12.704-4.56 6.158-8.681 12.662-12.65 19.223-3.36 5.554-7.645 10.544-10.002 16.73-.956 2.511-2.542 4.803-5.311 6.517-.653-3.78 1.755-6.202 3.143-8.867 3.656-7.023 8.275-13.458 12.817-19.916 8.195-11.65 15.893-23.696 26.106-33.793.585-.577 1.052-1.372 2.457-.942-.917 3.058-3.85 4.663-5.163 7.317M248.623 191.159c-1.257.92.224 3.408-1.7 3.004-1.64-.347-1.048-2.347-.636-3.617 2.557-7.861 7.596-13.679 14.894-17.489 1.105-.577 2.709-1.458 3.731.176.908 1.45-.496 2.33-1.298 3.237-3.36 3.807-6.546 7.693-7.385 12.94-.21 1.317-1.279 1.792-2.368 2.238-.38.156-.763.41-1.032.717-2.132 2.424-3.741 2.68-4.206-1.206M182.83 50.091c-.351 3.916-3.7 6.077-5.519 9.126-1.348 2.257-2.448 4.819-4.602 6.612-.536.446-.75 1.429-1.636.931-.704-.396-.847-1.199-.372-1.953 2.862-4.538 5.645-9.13 9.065-13.285.807-.981 2.08-.954 3.156-1.353l-.091-.078z"/><path d="M182.922 50.17c-.4-.868-.865-1.674-.138-2.663 4.122-5.61 8.159-11.286 12.937-16.377.37-.394.574-1.328 1.41-.744.528.371.397.945.034 1.404-4.67 5.905-9.204 11.912-13.447 18.135-.12.175-.584.116-.888.167l.092.077zM165.924 83.07a1.859 1.859 0 01-.04.275c-.564 1.428-1.796 2.584-1.69 4.29.037.607.118 1.471-.808 1.391-.827-.071-.716-.84-.643-1.495.649-5.82 2.627-11.264 4.832-16.625.379-.92 1.488-1.908 2.5-1.436 1.2.558.294 1.743-.131 2.438-2.113 3.456-3.035 7.315-4.02 11.162M198.855 35.904c-.026.1-.056.2-.09.295 1.35-1.371 3.698-1.777 3.925-4.307.038-.418 1.1-1.945 2.176-1.003 1.022.895-.07 1.84-.66 2.4-2.674 2.531-4.795 5.391-6.01 9.23-1.026-1.199-2.56-1.982-.518-3.438 1.097-.782.658-2.163 1.177-3.177M185.326 63.795c.39-.576.779-1.154 1.167-1.73.468-.368.937-.735 1.404-1.104l.492.342-3.229 5.76c-.23-.074-.46-.15-.69-.227l.856-3.041M174.508 85.639c-.627-2.205.98-3.668 1.822-5.369.826-1.667 1.788-3.267 2.692-4.898.319.83.244 1.564-.219 2.376-1.482 2.602-2.871 5.256-4.295 7.89"/></g></svg>