<svg width="339" height="293" viewBox="0 0 339 293" xmlns="http://www.w3.org/2000/svg"><g fill="#000" fill-rule="evenodd"><path d="M306.615 233.579c-2.182 1.71-3.207 4.186-3.646 6.97-.241 1.537-1.643 1.747-2.698 2.017-.913.234-1.756.265-2.494 1.018-.305.312-1.258.38-1.658.136-1.28-.78-2.65-1.35-3.832-2.391-4.16-3.661-7.21-8.19-10.065-12.809-2.912-4.713-5.96-9.376-8.192-14.489-.693-1.59-.721-1.578 1.025-2.813 1.42 2.7 2.743 5.44 4.276 8.06 1.215 2.078 2.685 4.004 4.166 6.179.349-.876.34-1.437-.2-2.217-2.946-4.255-5.742-8.605-7.96-13.588l1.21-.788.693.6v-1.775c1.052-.21 2.006-.399 3.248-.645.968.452 1.428 2.165 3.021 2.377-.052 1.733 1.463 2.597 2.225 3.863.944 1.57 2.224 2.937 3.13 4.097 1.023-.136 1.789-.279 2.56-.333 2.711-.19 2.645-.104 4.334 1.385 1.876 1.654 3.16 3.97 5.58 5.02.155.068.329.305.337.47.075 1.741 1.05 2.374 2.685 2.796 1.372.356 1.761 1.801 1.826 3.223.049 1.09.25 2.174.43 3.637M64.646 31.335c1.94.971 1.94.971 2.985-1.062 1.327-.455 2.93.461 4.131-.758 1.35.337 2.684.794 4.054.983 2.213.304 3.356 2.016 4.606 3.457.848.979 1.736 1.96 2.512 3.024.907 1.244 1.991 2.356 2.902 3.596.824 1.124 1.53 2.339 2.262 3.528.203.331.463.734.434 1.081-.079.925.242 1.548.899 2.21 1.263 1.275 1.165 3.145 1.604 4.737.407 1.483.173 3.174.042 4.759-.05.605-.13 1.897-1.462.944-.094-.068-.56.429-.88.616-.338.197-.915.574-1.035.47-1.406-1.235-1.748-.352-2.391.868-.946 1.796-1.523 1.664-4.063 1.21-1.545-.276-3.183-.324-4.088-1.665-2.446-3.626-4.952-7.227-5.291-11.862-.135-1.857-.654-3.796-2.186-5.131-1.32-1.151-2.197-2.796-4-3.438-.543-.194-.94-.841-1.363-1.319-.897-1.018-1.38-2.15-1.403-3.583-.025-1.488 1.15-1.822 1.73-2.665M272.05 152.522c-1.584-1.584-2.913-3.135-4.463-4.421-4.446-3.69-6.557-8.909-9.216-13.766-1.194-2.182-.853-4.632-.801-6.991.01-.41.575-.808.906-1.237l1.493 2.954v-4.368c.93-.461 1.85-.712 2.476-1.283.778-.707 1.657-.567 2.37-.388.831.209 1.54.902 2.375 1.433-.489 2.293.413 4.212 1.532 6.213 1-.271 2.182.44 3.184-.588.212-.218.91-.236 1.21-.055 2.455 1.477 5.467 2.26 6.708 5.293.223.547.47 1.253.919 1.496.676.366.069 1.509 1.23 1.553.955.037.344 1.01.516 1.541.212.657.502 1.3.617 1.974.106.617.022 1.267.022 1.908-2.457 2.107-4.036 4.792-5.247 7.783l-5.83.949M5.537 3.332c.583-.794 1.037-1.456 1.54-2.08.185-.227.469-.386.733-.534.752-.421 1.29.77 2.13.25.66-.405 1.432-.77 2.184-.843.624-.06 1.55.692 1.886.45.747-.538 1.194-.7 1.844.029.121.134.564.033.84-.034 2.039-.492 2.037-.498 3.129 1.484l.512-1.477c.323.873.64 1.494.774 2.15.164.803.204 1.635.241 2.457.04.826.009 1.655.472 2.506l.31-3.077.33-.013c.06.545.165 1.09.169 1.635.017 2.767-.113 5.54.044 8.298.14 2.432-.277 4.635-1.65 6.646-.516-.493-1.004-1.24-1.59-.048-.643 1.302-1.67 1.204-2.999.607-.22 1.416-.32 3.086-2.666 2.552v-3.547l-.469-.094-1.125 3.664c-1.048-.702-1.907-1.448-1.737-2.924.047-.414-.436-.867-.592-1.33-.675-2.01-.664-2.015-2.334-2.063-.32-.01-.639-.001-.958-.001H5.68c-.81-.81-1.54-1.588-2.32-2.31C1.696 14.147 1.167 12.114.901 10 .769 8.954.996 7.86.847 6.816c-.164-1.15.428-2 .951-2.81 1.044-1.613 1.613-1.66 3.739-.674M192.15 28.659c-1.364.927-2.678 1.856-4.047 2.693-.133.08-.61-.402-1.123-.76-.315.564-.528 1.081-.861 1.504-.392.498-.896.909-1.34 1.368-.902.928-1.77 1.962-3.102.551-.102-.107-.411-.001-.622-.023-1.496-.162-2.921.21-4.427-.993-1.212-.97-2.755-1.64-3.894-2.829-1.068-1.117-2.173-2.166-2.918-3.583-1.143-2.177-2.272-4.329-1.865-6.883.102-.641.542-1.229.94-2.087l1.985 1.628c.521-1.729.415-3.737 2.016-5.26l1.992 1.487v-2.334c2.102-.359 4.012-1.081 6.12-.955 1.208.073 2.253.456 3.018 1.189.983.941 2.187 1.615 2.99 2.82.725 1.092 1.716 2.005 2.478 3.129 1.25 1.848 1.672 4.008 2.586 5.975.436.937.075 2.247.075 3.363M56.627 89.835V96.7c.637-1.735.527-3.488.581-5.232.021-.702-.31-1.575.54-1.993.879-.435 1.807-.864 2.755-1.004.326-.048.947.724 1.132 1.23.2.543.046 1.216.046 1.9.53-.22.846-.478 1.129-.446.584.066 1.387.606 1.686.388 1.663-1.224 3.485-.42 5.204-.516.778-.043 1.955.476 2.328 1.108.915 1.554 2.762 2.03 3.73 3.859.032.781.135 1.747.947 2.787 1.064 1.362 1.972 3.054 1.643 5.047-.154.927-.027 1.9-.027 3.03-2.182 1.294-4.45 2.552-6.626 3.956-2.277 1.469-4.348.482-6.285-.533-1.414-.742-3.311-1.09-3.789-3.064-3.16-1.422-3.723-4.753-5.41-7.27-1.135-1.692-1.1-3.661-1.421-5.452-.265-1.48.779-3.194 1.244-4.803l.593.142M118.545 124.46l-4.382-4.383c0-1.064-.11-2.332.056-3.563.063-.458.724-.92 1.216-1.189.186-.103.666.331 1.016.522.464-.92.737-2.164 2.308-1.862.292.058.706.075.906-.085.782-.634 1.634-1.28 2.635-1.002 1.794.5 3.793.792 5.192 2.03 2.765 2.448 5.393 5.11 6.77 8.646.82 2.109 1.56 4.286 1.956 6.502.173.969-.089 2.3-1.193 3.072-1.817 1.273-3.567 2.648-5.424 3.859-.633.412-1.525.697-2.263.632-4.65-.402-7.963-2.59-9.337-7.842-.201-.765-.68-1.562-.578-2.278.15-1.036.716-2.013 1.122-3.059M126.523 240.072l-.38-1.925c-.008 2.547-2.696 3.5-3.282 5.664-.209.775-1.354 1.12-1.828.69-.773-.7-1.3-.19-1.736.094-1.16.756-2.147.683-3.332-.01-3.415-1.996-6.939-3.831-8.953-7.492-2.426-1.313-3.136-3.98-4.644-6.008-.733-.986-.967-2.343-1.478-3.667.892-1.299 2.187-.955 3.753-.174-.15-.738-.11-1.417-.42-1.836-.428-.576.03-.802.273-.905 1.103-.46 2.243-.799 3.151-1.67.222-.213.85-.128 1.24-.011.695.211 1.291.656 2.065.027.219-.177.932.177 1.38.374 3.853 1.692 7.339 3.814 9.62 7.569.307.506 1 1.044 1.517 1.526 1.484 1.379 1.762 3.388 2.911 4.874.763.99.596 1.858.143 2.88M320.764 90.878l.263-1.832c.232.17.438.236.492.366.82 2.007 1.843 3.93 2.325 6.076.303 1.35.689 2.641-.617 3.693-.89.716.013 2.771-1.988 2.656-.943 1.515-2.455 1.364-3.9 1.26-.327 1.014-.53 2.002-.955 2.883-.48.993-2.014 1.274-3.658.804-.375-.107-.738-.471-1.082-.441-2.663.232-2.659.252-3.78-1.848-.559-1.048-1.235-2.049-1.669-3.146-.528-1.337-1.35-2.173-2.7-2.75-2.005-.858-3.308-2.597-3.654-4.666-.313-1.872.564-3.59 2.236-4.94l2.812 3.672c0-1.546-.016-2.587.005-3.627.021-1.034.134-.822 1.77-1.56 1.168-.526 2.861.112 3.534-1.51l3.462-.13c2.132-.085 4.024.147 5.018 2.517.394.939 1.338 1.648 2.086 2.523M5.282 106.426c-2.525-.547-3.412-2.338-3.642-3.911-.295-2.013-.977-3.985-.813-6.112A55.073 55.073 0 00.816 88.1c-.1-1.336.758-2.326.738-3.575-.005-.325.447-.954.66-.941 1.648.094 2.43-1.69 4.158-1.7 1.144-.006 2.282-1.079 3.566-1.75 1.265 1.265 3.955-.3 4.98 2.49-.67 1.96 1.002 3.68 1.568 5.688.079.28.374.53.376.796.027 3.162.016 6.323.016 9.758l-1.283-1.14c.172.743.14 1.312.393 1.505.27.206.839-.023 1.221.105.174.058.267.517.285.8.01.13-.273.418-.376.397-.775-.151-1.539-.362-2.375-.571l-1.637 3.543c-.872-.064-1.393-.104-1.913-.143.912.92-.136 1.25-.515 1.817-.386.573-.669 1.216-.975 1.788-2.013-.219-2.764-1.516-3.303-3.235l-1.118 2.693M240.837 253.583c-1.655-.047-3.222-.494-4.022 1.342-1.352-1.782-1.511-3.045-.135-4.46.95-.977 1.577-2.196 2.788-3.04 1.06-.739 1.45-2.373 2.362-3.414.702-.8 1.755-1.293 2.653-1.92.28.273.583.57 1.06 1.039l-1.502 1.068.166.383 2.279-.359c.218.328.472 1.168 1.015 1.45 3.263 1.7 5.346 4.536 7.329 7.447.651.955.875 2.19 1.399 3.248 1.291 2.613 1.625 3.095 1.232 5.47-.284 1.717-.598 3.547-1.946 4.946-.533.551-1.1 1.348-1.129 2.054-.07 1.784-1.05 2.069-2.49 1.977a3.835 3.835 0 00-1.221.132c-2.513.676-2.773.605-4.026-1.321-1.856-2.853-2.743-6.115-3.823-9.285-.762-2.24-1.344-4.544-1.989-6.757M200.145 218.476c-1.778-1.009-3.578-1.893-5.027-3.353-2.7-2.727-5.598-5.282-8.089-8.187-2.619-3.054-5.392-6.065-6.972-9.646.167-1.414 2.009.088 2.044-1.58.01-.477 1.178-.937 1.826-1.389 1.607-1.122 2.505-1.31 3.676-.063 1.156 1.23 2.492 1.672 4.005 1.992 2.336.495 3.948 2.29 5.947 3.393 2.14 1.18 3.664 3.082 5.402 4.733.9.854 2.018 1.51 2.791 2.456.778.951 1.492 2.095 1.768 3.265.167.712-.368 1.787-.913 2.422-.672.783-.99 1.912-2.167 2.291-.68.219-.584.98-.717 1.606-.152.719-.353 1.594-1.601.69-.873-.63-1.608.265-1.973 1.37M328.975 199.968c-3.647-1.502-5.215-4.295-6.773-7.009-1.37-2.385-2.618-4.87-3.636-7.424-1.015-2.55-2.786-4.968-1.996-8.178 2.307 1.607 2.115 4.68 4.33 6.735-.405-3.25-2.092-5.761-2.933-9.185l2.103 1.152.307-1.723 3.04-.578c.299.477.69 1.18 1.154 1.833 1.812 2.538 1.822 2.526 5.112 3.696.368.132.711.345 1.045.556 2.548 1.61 4.868 3.424 6.27 6.223.519 1.035 1.225 2.936 1.193 4.037-.007.258.21.561.397.78.479.554.263 1.027-.232 1.308-1.438.81-2.06 2.406-3.337 3.361-.545.408-.642.95-.74 1.622-.137.915-1.932 2.102-2.768 1.91-.517-.12-.851-1.071-1.557-.37-.37.368-.65.826-.98 1.254M225.346 125.393l-1.952.323.785 1.47-4.732 4.732c-.263 0-.585-.048-.887.008-3.59.664-5.98-1.373-7.974-3.83a29.028 29.028 0 01-3.937-6.337c-.65-1.44-1.231-2.765-.767-4.721l3.03 6.656.519-.167c-.079-.406-.09-.842-.248-1.215-.649-1.542-1.387-3.048-1.998-4.603-.271-.689-.852-1.547.628-1.867.456-.098.724-1.083 1.072-1.666.305-.512.6-1.03.843-1.442 1.496-.137 1.51 1.17 2.443 1.71l-.72-2.731 1.757-1.394c.403.401.939 1.04 1.435-.138.538-1.275 1.334-1.771 2.624-.934.117.076.36.134.437.071 1.494-1.23 2.374-.005 3.065.936 1.65 2.25 2.427 4.95 3.415 7.52.232.604.738 2.02-.964 2.088-.096.004-.17.533-.253.817.354.085.899.36 1.034.224.953-.956 1.467.292 1.374.511-.574 1.349.755 2.651-.029 3.98M213.759 57.108l1.323 1.323.287-2.465c1.316-.276 2.674-.623 4.052-.828a8.637 8.637 0 012.544.009c.634.098.136 1.279 1.318 1.382.764.067 1.35 1.364 1.894 2.268.441.733-.22 2.32 1.456 2.226.057 1.038.115 2.078.175 3.116.004.101.028.201.043.302l4.755 4.754c.509 0 1.049-.065 1.564.016.794.128 1.65.915 1.242 1.403-.905 1.085.719 1.835.074 2.721-2.474.742-3.255.824-5.268.472l1.495 3.235c-.322.308-.745 1.06-1.163 1.058-2.637-.02-5.412.649-7.762-1.223-.637-.508-1.407-.905-1.902-1.526-1.13-1.415-2.141-2.925-3.173-4.418-.508-.736-.942-1.524-1.43-2.275-.756-1.163-.532-2.838-1.917-3.67.21-1.41-.586-2.477-1.094-3.694-.691-1.653-.263-3.235 1.487-4.186M115 9.674h2.952c1.141.002 2.377-.189 2.638 1.46.029.184.456.464.66.435 1.352-.2 1.702 1.077 2.53 1.64 2.244 1.524 2.575 4.037 3.136 6.36.32 1.325-.108 2.275-1.616 3.177-1.692 1.013-3.81 1.642-4.971 3.482-1.026.02-1.865 1.624-3.063.34-.173-.185-.558-.247-.843-.243-4.04.078-6.567-2.24-8.678-5.333-1.07-1.567-2.412-2.968-2.832-4.899a16.867 16.867 0 01-.33-2.412c-.02-.265.136-.725.322-.792 1.625-.58 2.806-1.967 4.382-2.531 1.943-.695 4.021-.904 5.712-.684M109.87 164.896l1.48 2.33c.15-1.115.208-1.496.251-1.879.14-1.268.139-1.266 1.741-1.429.201-.02.51.006.581-.108.731-1.152 1.873-1.475 3.025-1.127 1.306.393 2.708.886 3.724 1.742 3.965 3.342 6.298 7.82 8.11 12.573.307.81.043 1.838.043 2.754l-1.223-.136c.081 1.147-.178 1.998-1.52 2.269-.403.082-.953.683-.993 1.088-.135 1.382-1.555.708-2.05 1.428-.79-1.26-2.152.265-3.041-.635-.852-.861-2.018-1.526-2.582-2.537-1.24-2.228-2.427-4.547-3.154-6.973-.37-1.242-.92-2.067-1.877-2.63-1.552-.912-2.759-2.067-3.517-3.71-.632-1.372-.66-1.359 1.001-3.02M169.844 127.677c0-.318-.076-.76.027-1.157.07-.265.524-.446.563-.7.044-.278-.282-.598-.286-.9-.002-.269.376-.599.302-.797-.135-.365-.438-.703-.749-.956-.206-.17-.55-.172-.975-.287l.522 1.812c-1.13-.689-2.385-1.238-1.833-2.898l1.495.642c.183-1.999-1.67-.959-2.383-1.905 1.044.123 1.74-.596 2.79-.456.487.064 1.121-.97 1.867-1.677l3.557 2.902.342-2.091 4.703-.908c.818 1.044 1.458 1.997 2.237 2.817.676.709 1.605 1.182 2.256 1.908 1.838 2.05 2.67 4.64 3.426 7.202.271.916.57 2.367-1.182 2.612.008 1.683-1.766 1.934-2.567 3-1.003 1.336-2.777 1.566-4.692.792-2.868-1.158-4.752-3.397-6.584-5.577-.916-1.092-1.945-2.122-2.836-3.378M222.58 169.175l1.587.54c.116-2.691-2.666-3.446-3.054-5.924.564.249 1.022.354 1.354.618.533.425.981.953 1.646 1.617-.227-1.35-.377-1.659-1.147-2.582 1.683-2.035 1.683-2.035 3.67-2.042 1.092 1.23 2.025 2.852 3.424 3.707 1.546.944 2.001 2.556 3.14 3.712 1.09 1.107 1.812 2.613 2.534 4.027.396.775.733 1.764.604 2.578-.164 1.03-.603 2.542-1.33 2.834-1.197.482-.93 1.328-1.307 2.055-.516.994-1.222 1.961-2.518 2.175-.757.124-1.658.701-2.213.452-1.35-.61-2.745-1.385-3.744-2.45-1.884-2.008-3.57-4.218-5.182-6.456-.404-.561-.218-1.547-.337-2.656l1.203.97c-.234-1.632 1.193-2.191 1.67-3.175M205.757 286.538c-.875-.48-1.296-.71-1.704-.936-.72 2.599-.898 2.734-3.023 1.797l1.5 3.487-1.697.985c-1.037-1.036-2.09-2.088-3.24-3.24-.692 1.56 1.214 2.28 1.026 3.786-1.71.238-2.701-.925-3.686-1.995-.537-.584-.828-1.4-1.382-1.963-2.469-2.506-4.686-5.216-6.754-8.055-.185-.255-.442-.459-.672-.68-1.246-1.188-2.552-2.337-2.645-4.274 1.244-.762 1.904.412 2.75 1.138.86-1.423-1.13-1.613-1.04-2.662.076-1.265 2.482.348 1.871-1.72h3.465c.992.699 1.997 1.39 2.983 2.107.989.719 1.643 1.753 2.853 2.338 1.176.57 1.955 1.915 2.99 2.827.675.595 1.103 1.413 2.182 1.68.78.193 1.196 1.377 2.382 1.224.33-.043.924.553 1.092.976.32.808.419 1.7.749 3.18M183.769 72.516c1.1.073 1.86-.497 2.868.23l-1.288.443c.378 1.283.798 2.557 1.107 3.857.079.333-.096.992-.327 1.09-1.284.541-1.673 1.922-2.672 2.68-.443.335-1.106.444-1.684.51-.29.031-.631-.406-.921-.376-.353.038-.677.346-1.05.557-.548-1.94-.52-2.019-2.683-2.756-1.294-.441-1.563-1.713-2.48-2.513l-.626 1.334c-.322-.338-.865-.645-.864-.95.016-3.813.013-3.898-1.728-6.183-.98 1.724.9 2.721 1.001 4.407-.465-.073-1.161-.019-1.242-.217-.818-1.988-2.064-3.865-.786-6.25.396-.74.468-1.128 1.358-1.143.55-.009 1.14-.331 1.629-.641 1.268-.801 2.49-1.674 3.845-2.598l.527.786c1.069.745 2.184-1.261 2.362.831.052.594 1.379-.823 1.379.732 0 .601 1.104 1.203 1.659 1.758l-.575 1.495.473.327.907-1.724c.571.972.903 1.534 1.339 2.272l-1.528 2.042M76.206 168.099l-1.968-2.484-.813 1.661c-1.23-.577-2.059-1.53-2.764-2.524-1.558-2.197-2.763-4.621-4.343-6.823-.971-1.353-1.029-3.053-.645-4.813 1.458-.296 1.774 1.419 2.99 1.852v-3.116c2.297-.323 4.511-.636 6.541-.92 2.13 1.912 3.532 3.978 4.526 6.365.568 1.36 1.738 2.38 2.093 3.936.141.615-.648 1.443.323 1.9.016.007-.289.756-.298.752-1.584-.571-2.117 1.726-3.641 1.358-.099-.025-.369.564-.52.887-.168.354-.243.76-.45 1.087-.152.244-.448.396-1.03.882M147.084 206.8c.457 1.06.79 1.83 1.267 2.93l.59-1.559c.143.088.378.15.408.264a6.436 6.436 0 001.602 2.868c.474.499.817 1.14 1.14 1.759.569 1.095 1.376 1.842 2.683 2.074l.515-1.044 1.754 1.314c0 .4.043.57-.006.602-.58.377-1.172.732-1.713 1.063.158.874.298 1.667.51 2.853l-2.238-1.09c-.419.842-.839 1.69-1.29 2.6l-1.55.176v1.422c-1.607 1.204-2.923 1.042-4.316-.229-1.519-1.384-3.23-2.554-4.78-4.203l1.97-1.301c-.352-1.29-.984-2.443-1.896-3.57-.911-1.127-1.411-2.59-2.067-3.859.937-1.155 1.678-.3 2.538.061.036-.322.185-.666.083-.898-.642-1.444-.364-2.157.996-2.22 1.277-.06 2.558-.012 3.8-.012M56.009 219.454l1.52 2.25c.142-.442.337-.727.292-.965-.218-1.156-.5-2.299-.796-3.602h1.86l.747 1.554v-2.614c.364-.128.673-.166.89-.327.497-.37 1.283-1.209 1.364-1.143.813.669 1.818.265 2.606.568 1.176.45 2.293 1.237 2.278 2.736-.005.448-.599.947-.51 1.324.073.306.894.374 1.14.72.2.283.217 1.04.01 1.206-.83.662-.646 1.519-.59 2.321.072 1.002-.367 1.611-1.257 1.864-.95.27-1.172.878-1.371 1.788-.283 1.285-1.164 2.139-2.654 2.076-.516-.022-1.05-.01-1.55.1-1.271.277-2.874-.028-3.27-.96-.969-2.277-2.37-4.428-2.11-7.107.103-1.044.732-1.34 1.4-1.789M158.629 161.884l2.647.775c.433-1.031.561-2.021-.352-2.943 1.122-1.02 1.868.518 2.968.351l.316-1.712c.862-.922 1.638.78 2.68-.023 1.063-.822 1.332.951 2.237 1.154.508.114.983.643 1.346 1.09 1.201 1.473 1.389 3.558 3.007 4.845.387.308.18 1.365.268 2.305-1.795-.881-1.904 1.965-3.632 1.29-.532.86-.03 2.42-1.974 2.607l-.984-1.68c-.39.814-.579 1.208-.772 1.614-1.09.258-1.588-.68-1.946-1.278-1.188-1.989-2.728-3.51-4.719-4.7-1.225-.733-1.897-1.926-1.09-3.695M143.06 76.865l-4.062 3.183h-2.688c-1.047-1.513-1.387-3.504-2.93-4.754-.162-2.107-1.619-3.413-2.885-4.883-.403-.468-.316-1.357-.487-2.228.462-.129.92-.12 1.16-.344 2.455-2.296 4.769-1.005 6.726.561 1.671 1.337 3.081 3.105 4.265 4.905.672 1.02.654 2.492.9 3.56"/></g></svg>