<svg width="82" height="73" viewBox="0 0 82 73" xmlns="http://www.w3.org/2000/svg"><g fill="#000" fill-rule="evenodd"><path d="M35.899 45.582c.564 0 1.061.086 1.513-.019.837-.194 1.962-1.898 1.898-2.764-.01-.133-.053-.326-.144-.379-.42-.24-.863-.442-1.297-.658-.257.444-1.055-.054-1.164.681-.045.303-.736.11-.552.647-.447.794-.12 1.64-.254 2.492M33.69 42.14c.136-.233.313-.448.397-.694.305-.893 1.096-1.237 1.856-1.451.528-.15 1.09-.327 1.698-.285 1.379.098 2.348.745 3.038 1.914.322.545.624 1.097.76 1.71.091.416.204.897.081 1.276-.474 1.472-1.283 2.707-2.814 3.292-.421.16-.86.279-1.293.41-.069.02-.161.028-.222-.002-1.11-.54-2.183-1.153-2.828-2.247-.276-.47-.533-1.012-.465-1.602.082-.716-.223-1.47.204-2.15l-.412-.171M.685 55.402c-.358-.082-.567-.232-.439-.656.056-.026.154-.052.23-.108.732-.529 1.632-.608 2.455-.87.36-.114.93-.012 1.23.218.935.717 1.972 1.34 2.414 2.569.366 1.015.218 2.318-.427 3.149-.375.482-.899.785-1.285 1.275-.632-.103-1.298.154-1.926-.226-.294-.178-1.573-.854-1.823-1.04-.583-.436-.81-1.073-1.028-1.719-.045-.133-.117-.303-.072-.413.29-.708.084-1.558.671-2.18M51.71 32.13c.897.857 2.397 1.335 3.63 1.288a1.972 1.972 0 001.428-.634c.226-.234.459-.462.694-.698-.134-.184-.254-.286-.291-.413-.175-.581-.493-.946-1.15-.996-.299-.022-.581-.217-.88-.306-.194-.059-.536-.157-.584-.085-.273.408-.42-.232-.777.078l-.894.84-.694-.545c-.708.353-.35.95-.482 1.472m7.01.738l.487.169-.323 1.018-.604.07.215.289c-.383.47-.823.832-1.502.802-.17-.007-.346.061-.513.116-.462.152-.912.184-1.372-.024-.158-.07-.456-.15-.506-.086-.424.547-.772-.156-1.187-.061-.174.04-.34-.416-.712-.43-.2-.006-.376-.3-.588-.419-.247-.14-.345-.512-.712-.458-.172-.557-.73-.815-1.009-1.277-.622-1.029-.623-2.507-.111-3.503.453-.882 1.306-1.14 2.09-.546.381.287.67.516 1.103.169.149.236.288.141.396-.028.173-.27.436-.286.693-.232.893.187 1.8.44 2.518.979.632.474 1.085 1.187 1.617 1.794-.043.539.641 1.048.02 1.658M66.95 58.57c.34-.178.72-.471 1.278-.244-.06.08-.11.15-.212.29.22.057.577.068.604.169.185.693.967.889 1.2 1.531.396 1.087.743 2.17.162 3.296-.064.125-.13.154-.038.33.257.49.018.84-.43 1.094-.311.176-.139.351.042.528l-1.163 1.494H67.15c-.23-.247-.511-.545-.788-.848-.249-.272-.574-.442-.799-.77-.508-.741-.605-1.542-.435-2.367.133-.64.448-1.243.606-1.88.103-.418.205-.753.621-.98.168-.092.283-.427.278-.648-.007-.324.218-.445.359-.65.046-.067-.023-.213-.044-.346M78.393 23.114c-.053-.053-.13-.096-.156-.16-.184-.47-.68-.391-1.024-.517-.185-.067-.51.239-.767.386-.114.065-.342.44-.494.71-.118.212-.247.556-.405.576-.357.047-.284.245-.317.458-.022.147-.12.282-.176.405.791.804 1.536.467 2.35.089.89-.413 1.045-1.103.989-1.947m-2.086 3.962l-.475.694c-.102-.095-.192-.24-.258-.23-.805.12-1.07-.654-1.612-.963-.061-.035-.103-.255-.066-.287.563-.48-.037-.835-.112-1.25-.09.079-.168.15-.248.222-.027-.027-.078-.055-.077-.08.027-.493-.241-1.03.254-1.456.113-.097.091-.334.175-.483.214-.381.271-.884.663-1.123.402-.246.245-.747.646-1.036.68-.49 1.744-.739 2.542-.44 1.157.432 1.895 1.313 2.326 2.378.347.858.511 1.83.35 2.77-.094.549-.576.925-1.003 1.254-.129.099-.45-.053-.75-.1.019.077.022.246.1.366.12.185.168.358-.063.432-.234.076-.32-.086-.306-.317.002-.038-.103-.083-.22-.17l-.598.498-.138-.478-.956.886c-.074-.462-.12-.758-.174-1.087M19.404 38.728l.371.313c.071-.144.125-.396.22-.413.24-.042.563-.067.74.059.534.379 1.094.77 1.49 1.276.374.481.623 1.094.792 1.688.097.344.042.738-.159 1.154-.412.85-.826 1.613-1.686 2.113-.381.221-.809.231-1.17.455-.142.088-.315.127-.481.19l-.22-.39c-.128.181-.214.16-.41.025-.35-.242-1.031-.862-1.326-1.103-.95-.776-.403-1.742-.362-2.627.01-.222.365-.428.574-.656.777.417 1.178 1.084 1.45 1.821.762-.095.885-.806 1.303-1.202.093-.087.03-.339.048-.699l-.811.81c-.573-.04-.504-.73-.987-.772-.008-.448-.084-.91.003-1.338.05-.243.368-.43.621-.704M62.564 9.364l.843-.843h1.4c.146-.61-.306-.364-.597-.444.031-.08.04-.173.091-.217.357-.307-.171-.426-.12-.738.238-.568.904-.671 1.405-.98.141-.088.417-.04.598.031.917.362 1.249 1.185 1.618 2.014.238.533.017 1.163.432 1.629-.164.61-.228 1.274-.522 1.813-.312.573-.98.885-1.607.947-.347.035-.65.443-.992.179-.29-.225-.697-.099-.96-.454-.188-.253-.604-.27-.718-.712-.055-.218-.473-.253-.661-.6-.304-.559-.079-1.093-.21-1.625M58.594 44.75c.14.56.264 1.03.374 1.504.025.107.052.276-.004.327-.497.461-.035.84.086 1.246.87.014.845-.04 1.291-.675.531-.756.44-1.578.425-2.401-.003-.15-.145-.33-.273-.438-.255-.215-.674.117-.906-.241l-.237.361c-.439-.293-.55.178-.756.316m-1.032.725l-.397-.77c.128-.674.896-.488 1.146-1.012.246-.515.995-.295 1.396-.815l-.47-.315c.022-.029.054-.109.097-.117.761-.139 1.316.268 1.834.73.431.385.678.91 1.002 1.376.182.261-.135.502.14.668.246.15.322.393.276.672-.051.306.238.635.186.794-.122.375-.132.767-.257 1.13-.235.678-.579 1.296-1.11 1.793-.305.285-.734.381-1.27.287-1.297-.226-1.313-.212-1.897-.855a3.452 3.452 0 01-.878-1.782c-.07-.399-.307-.751-.026-1.146-.377-.362.193-.354.228-.638M27.276 14.836c1.028.579 1.265 1.062.7 1.944-.292.455.069.968-.343 1.342-.06.055.1.356.16.543.17.512.336.558.893.411 1.065-.28 1.569-1.033 1.825-2.053-.397-.113-.796-.22-1.192-.34-.483-.146-.308-.689-.506-.938l.73-.728c.687-.385 1.115.367 1.742.538.461.743 1.104 1.388 1.038 2.384-.085 1.258-.627 2.306-2 2.81-1.147.42-2.054.244-3.038-.63-.6-.533-1.088-1.082-1.11-2.028-.028-1.25.21-2.347 1.1-3.255M25.7 61.142c-.98.288-1.553-.372-2.212-.766-.604-.362-.683-1.074-.862-1.66-.165-.541.168-1.104.365-1.629.165-.441.438-.843.662-1.26l-.39-.142.495-.521-.778-.141c.218-.163.373-.373.513-.364.39.027.774-.109 1.185.116 1.047.571 1.582 1.527 1.968 2.553.541 1.44.252 2.749-.947 3.814M38.244 66.501l-.307.617c.743.764 1.05 1.684.931 2.75-.028.253-.021.471-.21.708-.36.45-.408 1.106-1.104 1.344-.302.103-.63.188-.834.084-.565-.29-1.214-.515-1.565-1.096-.175-.29-.337-.59-.374-.973-.122-1.254.387-2.295 1.025-3.293.144-.225.386-.387.675-.518.333-.15.54-.272.873-.023.242.181.563.259.89.4M78.972 40.624c-.446-.343-.708-.963-1.404-.937-.174-.302-.45-.587-.502-.909-.127-.78.056-1.476.862-1.858.095-.045.16-.154.264-.258l-.279-.094.68-.68-.157-.185c.104-.014.212-.053.31-.036.453.078.976-.23 1.36.232.5.602.87 1.257 1.016 2.05.195 1.05-.82 2.213-1.591 2.588-.197.095-.44-.29-.56.087M49.03 54.376c0 .311-.019.465.004.612.118.766-.522 1.037-.967 1.375-.442.335-.865-.158-1.279-.28-.386-.114-.705-.485-1.03-.768-.549-.478-.754-1.612-.407-2.291.08-.154-.005-.418.362-.452.22-.02.426-.37.602-.599.462-.598.866-.666 1.36-.144.323.34.697.62.927 1.077.267.53.566 1.01.429 1.47M36.721 28.658c.489.525 1.033.979 1.29 1.717.317.915.144 1.414-.634 1.947-.886.608-1.48.503-2.253-.287-.105-.107-.212-.212-.297-.297-.128-.395.166-.852-.255-1.162-.234-1.043.47-1.897 1.583-1.917.188-.003.375 0 .566 0M47.223 17.047l.452-.352-.433-.364.226-.252a352.73 352.73 0 00-.757-.166c.32-.86 1.107-.922 1.723-1.202.12-.055.38.104.53.222.604.478 1.044 1.09 1.35 1.796.04.093.094.261.056.294-.534.455.17 1.336-.529 1.641-.137.06-.445-.292-.813-.318l.469.515c-.274.182-.533.37-.81.527-.086.048-.222.016-.333.004-.066-.008-.187-.058-.184-.074.091-.617-.645-.159-.727-.564-.04-.2-.191-.384-.21-.582-.035-.371-.01-.748-.01-1.125M48.827.497V0h1.006c.51.766 1.209 1.492.962 2.647l-.648.04v-.932c-.181.035-.32.02-.371.08-.085.1-.094.261-.17.372-.141.205-.218.159-.407-.145-.128-.205-.303-.382-.479-.598l.549-.252c-.476-.235-.468-.227-.076-.634.068-.07.03-.243.048-.463l-.414.382"/></g></svg>