<svg width="70" height="70" viewBox="0 0 70 70" xmlns="http://www.w3.org/2000/svg"><g fill="#000" fill-rule="evenodd"><path d="M63.73 27.126c-.38-.118-.717.107-.94-.195-.234-.316-.429-.639-.423-1.068.018-1.354.023-2.708-.005-4.061-.006-.316.113-.55.235-.81.333-.702.687-1.39 1.193-1.987.236-.279.509-.509.86-.645.188-.072.349.162.591-.06.194-.177.429.323.72.304.177.446-.19.653-.431.93.307.142.63.13.918.303.283.169.504.322.438.662-.082.42.26.577.452.828-.084.112-.279.185-.215.358.514 1.407.14 2.37-.311 3.524-.125.32-.309.701-.327.976-.045.677-.505 1.164-.615 1.794-.082.466-.385.748-.919.72-.1-.005-.185.226-.451.173-.073-.077-.304-.212-.299-.338.017-.417-.039-.743-.464-.939-.056-.026-.007-.277-.007-.47M41.265 60.957c.463.117 1.042-.233 1.418.315l-.455.907c.2.204.322.11.51.037.695-.273.858-.183 1.103.51.036.101.018.251.131.274.792.157.61.951.94 1.409-.34.4.229.803.042 1.127-.21.366-.142.876-.575 1.12-.128.072-.063.2-.08.305-.148.914-.54 1.636-1.487 1.947-.125.042-.183.244-.45.165l-.416-.852c-.237-.076-.658.14-.595-.428H40.06c-.081-.615.007-1.266-.487-1.73-.039-.036-.042-.158-.012-.212.293-.528.1-1.152.321-1.673.112-.264.192-.458.033-.7-.385-.585.003-1.037.306-1.453.283-.39.678-.7 1.045-1.068M52.378 31.982c-.163.365-.502.271-.857.352.073.472-.163.981.216 1.432-.355.013-.355.013-.543-.128-.254.148-.338.42-.524.688.058-.822-.276-1.414-.862-1.804-.266-.052-.306.147-.436.197-.444-.819-.456-1.227-.103-3.377.184-1.114.76-2.033 1.573-2.959.245-.053.647.655 1.018-.02.36.638-.302.99-.338 1.606.36-.162.708-.292 1.071-.163.191.165-.057.435.152.612.33.28.623.586.17 1.006.49.362-.12.678-.046 1.044.072.353.016.732.016 1.111-.356-.07-.422-.49-.806-.423-.33.431.25.501.299.826M10.935 55.49c-.143-.271-.51-.112-.748-.214v-.505c-.027-.03-.061-.086-.075-.082-.623.208-.947-.443-1.491-.51-.52-.066-.819-.458-.921-.977-.04-.209.05-.36.236-.46-.892-.748-.333-1.49-.045-2.249.37-.971 1.133-1.086 1.994-1.039.173.485.076.886-.252 1.188.678.442.88-.218 1.308-.34l.375.714c-.006.249-.37.337-.194.616.305.363.41-.223.727-.127.426.383.376.969.365 1.498l.435.113c-.057.282-.45.363-.439.665-.001.329.347.08.448.322-.536.443-.901 1.106-1.723 1.386M37.168 39.742h.925c.19.19.14.699-.114 1.233.535.436.743-.198 1.036-.334.345-.016.365.283.517.32.098.328-.298.398-.17.738.237.14.747.008.85.413.073.289.143.667-.22.925l.41.143c-.03.32-.461.561-.204.977-.486.648-1.31.909-1.942 1.425-.115.094-.357.419-.677.203-.13-.173.169-.173.142-.329-.317-.2-.714.042-1.056-.135-.106-.251.06-.62-.344-.775-.478.23-.96.322-1.38-.338.55-.36 1.292-.484 1.415-1.31-.459-.012-.743.395-1.18.457l-.344-.31c-.032-.023.024-.052.067-.133.255-.486 1.051-.42 1.108-1.097.504-.2.465-.761.557-1.112.105-.407.32-.636.604-.96M18.044 65.538c.13-.3.39-.368.178-.716-.142-.15-.475.094-.769-.068l-.064-.318c-.033-.054-.098-.08-.137-.022-.123.184-.303.179-.492.175-.553-.01-.672-.17-.717-.734-.02-.248.18-.36.2-.6l-.604-.044c-.18-.835.309-1.571.466-2.343.08-.391.683-.58 1.169-.577.176.08.12.253.146.321.082.16.11.13.193.06.25-.215.552-.268.753.027.207.303.5.257.776.306.157.161.04.359.08.533.139.191.345.073.55.136.425.285.222.91.58 1.267-1.189 1.883-1.473 2.216-2.308 2.597M31.056 17.139c-.111-.601-.513-.804-1.119-.647-.541-1.027-.348-2.097-.226-3.134.026-.22.154-.49.117-.724-.074-.46.205-.832.279-1.252.057-.326.55-.4.856-.57.412.364.412.364.524.889.134.008.277.017.175.01.577.021.336.405.58.514.14.062.358.202.303.422-.09.36.441.606.215.91-.23.308-.095.663-.228.924-.342.669-.45 1.398-.641 2.102-.126.46-.364.589-.835.556M54.896 49.992c-.165-.142-.279-.307-.548-.33-.686-.055-.684-.082-.847-.839-.502-.167-.973-.003-1.394.193-.214-.216-.066-.415-.154-.602.156-.054.287-.1.45-.155v-1.296l-.753.239c-.12.01-.154-.249-.329-.302.252-.655.776-1.058 1.231-1.517.556.122 1.159-.499 1.658.155-.02.039-.053.786-.008.937-.11.013-.214.028-.319.038-.073.007-.147.008-.22.012-.183.168-.04.47-.294.636.567-.198 1.061-.44 1.432-.88.157.185.312.336.6.26-.494.4.17.906-.416 1.276.443.019.49-.271.665-.333.165-.057.35-.057.514-.08.2.416.479.777.258 1.317-.286.249-.97.193-1.082.9.512-.099.849-.387 1.101-.641.32.059.29.215.28.362-.571-.041-.516.671-.999.811-.386.112-.71.446-1.193.77.048-.435.213-.682.367-.93M44.525 16.126l-.398.399c.392.256-.401.711.157.94-.866 1.026-.877 1.052-.924 2.123h-1.052c-.086-.043-.005-.227-.086-.343-1.053-.123-1.277-.368-1.312-1.424-.009-.284.084-.596-.214-.803.22-.305.097-.697.326-1.033.44-.646.996-1.173 1.526-1.725.218-.107.417-.04.6-.02.098.42-.473.68-.075 1.129l.377-.55c.397.48 1.071.617 1.075 1.307M61.47.536c-.156.265-.517-.045-.677.255.319.165.658.047 1.027.095.136.47.41.902.59 1.395.382 1.045.132 1.946-.255 2.886-.153.374-.38.516-.82.424l-.384-.826c-.25-.093-.643.008-.837-.442.024-.75.056-1.586-.488-2.295l.468-.854-.451-.163c.106-.364.234-.712.56-1.011h.955c.133.156.367.262.312.536M28.77 28.263c-.156.25-.398.16-.592.175-.54-.484-.193-1.252-.597-1.775.67-1.31.67-1.31 1.813-1.839.23.057.363.216.446.427.064.248-.366.303-.222.589.215.247.375.088.533-.084.65.255.49 1.096 1.055 1.439-.064.465.078.947-.073 1.42l-.939 1.165-.441.02c-.131-.228-.404-.958-.363-1.037l-.62-.5M16.416 28.668c-.225.095-.013.41-.187.425-.326.07-.45-.104-.541-.246-.19-.3.05-.707-.108-.963-.2-.325-.277-.534-.037-.871.2-.28.09-.662.256-1.019.4-.854.377-.922 1.306-.915.026.027.074.052.076.08.007.15.003.3.003.48.302.173.764.042.932.56.127.39.532.664.44 1.174-.07.389.026.775-.35 1.112a1.139 1.139 0 00-.357.857c.01.263-.212.425-.516.461-.28.033-.434-.134-.544-.31-.159-.255-.253-.55-.373-.825M23.605 36.572h.92c.239.153.034.422.158.605.158.148.356.032.535.078.26.524.593 1.03.762 1.586.183.602-.09 1.197-.29 1.763-.458.188-.671-.163-.93-.415h-.903c-.154-.432-.368-.79-.918-.674-.257-.303.095-.778-.317-1.011.203-.283.395-.565.446-.93.05-.356.235-.659.537-1.002M.043 40.06c.41-.551 1.012-.73 1.663-.786.441.538-.31.643-.37.99.483.456.881-.31 1.338-.02.269.247-.095.349-.153.527.162.214.436-.008.598.128.185.468-.125.99.266 1.438-.368.333-.297.975-.827 1.24-.491-.088-.793-.455-1.16-.743-.325-.254-.849-.204-1.12-.83.171-.556-.441-1.19-.235-1.943M68.08 38.2c-.38-.223-.756-.286-1.003-.711l.527-.319c-.51-.157-.926.321-1.375-.018.247-.435.78-.43 1.112-.723.036-.262-.121-.262-.32-.326-.328-.104-.392.409-.706.234-.121-.111-.176-.296-.041-.374.727-.419 1.322-1.003 1.96-1.531.379-.313.503-.398 1.102-.508-.046.231-.268.315-.397.491.301.328.553.05.82-.067.04.465.415.851.233 1.487-.706.584-1.087 1.614-1.913 2.366"/></g></svg>