<svg width="394" height="409" viewBox="0 0 394 409" xmlns="http://www.w3.org/2000/svg"><path d="M310.853 271.501l-1.269-.776-5.605 12.53c2.83-3.685 5.813-7.265 6.874-11.754m4.33-15.74c2.545-5.212 4.85-10.865 4.509-17.187l-4.508 17.186M59.714 109.386c.724-.814 1.47-1.612 2.169-2.448 14.43-17.234 30.48-32.795 48.001-46.875 9.873-7.934 21.563-13.382 31.12-21.444 10.62-8.96 21.232-17.366 34.297-22.327.1-.039.012-.577.012-1.453-27.016 2.244-50.72 12.552-71.114 29.79-20.515 17.343-37.388 37.676-44.485 64.757m315.535 45.706c-.342-36.058-12-67.664-38.12-93.127C313.94 39.362 287.861 21.93 254.38 18.74c59.79 28.304 100.024 73.607 120.868 136.35M261.333 35.886c3.414 4.707 8.59 7.126 12.826 10.734 24.335 20.73 40.838 46.577 51.795 76.48 10.803 29.483 12.874 59.896 10.555 90.676-1.454 19.282-6.232 38.097-13.19 56.253-.544 1.418-2.3 3.224-.26 4.502 1.7 1.063 2.517-1.112 3.564-2.006 10.989-9.387 19.811-20.666 26.992-33.06 6.58-11.353 12.182-22.926 11.384-37.069-3.563-63.192-29.64-114.27-80.372-152.436-7.265-5.466-14.904-10.422-23.294-14.074m90.053 236.509c-2.551-.15-4.012.805-5.014 2.057-5.467 6.825-12.527 11.468-19.784 16.211a459.105 459.105 0 01-12.686 8.02c-6.95 4.224-10.664 11.33-15.556 17.474-14.551 18.277-31.287 34.24-51.14 46.895-23.696 15.105-48.805 24.94-77.347 26.191-15.262.67-29.642-.746-44.237-5.328-23.569-7.398-42.572-21.229-58.752-39.169-24.21-26.842-36.578-59.35-43.455-94.294-.52-2.645-1.31-5.236-1.976-7.851-1.838 6.534-1.562 12.894-1.672 19.242-.457 26.51 6.568 51.458 19.67 73.91 12.764 21.871 31.341 38.751 54.863 49.498 21.266 9.717 43.505 14.43 66.864 13.213 25.676-1.338 50.105-7.924 73.565-18.29 39.791-17.58 74.325-41.957 99.93-77.734 6.632-9.265 12.365-19.093 16.727-30.045M119.608 73.128c-1.264.528-2.003.657-2.506 1.073-14.805 12.237-27.857 26.227-40.19 40.873-9.472 11.252-17.54 23.583-24.908 36.274-5.01 8.63-9.815 17.543-10.929 27.841-2.706 25.018-2.215 49.884 2.828 74.618 7.192 35.278 20.417 67.55 45.725 94.033 12.884 13.482 28.243 23.105 45.914 28.5 28.621 8.743 55.445 1.423 81.322-10.998 16.743-8.037 31.459-19.213 45.175-31.557 6.248-5.622 12.248-11.814 17.184-19.92-8.81 1.006-16.443 2.958-24.284 3.785-26.681 2.815-51.71-2.584-75.105-15.026-31.833-16.927-53.177-43.21-65.214-76.994-15.337-43.044-14.227-86.502-2.248-130.056 2.025-7.365 4.675-14.557 7.236-22.446m68.966-38.875c-10.684 1.77-18.9 5.115-26.086 10.929-7.274 5.882-11.664 13.79-16.383 21.73-6.474 10.892-10.936 22.664-14.369 34.464-3.035 10.426-5.12 21.415-6.353 32.484-2.92 26.202-3.354 52.052 4.145 77.697 7.82 26.753 20.711 50.213 41.894 68.77 34.323 30.068 76.964 35.165 117.265 17.092 2.62-1.175 5.033-2.617 6.547-5.162 9.882-16.603 16.914-34.504 21.29-53.162 5.929-25.265 6.809-51 3.4-76.83-4.881-36.992-18.218-70.244-43.872-97.796-13.293-14.275-27.765-27.223-47.943-31.063-6.02-1.145-12.729-3.428-17.606 1.57-5.332 5.468-10.373 11.634-13.926 18.35-15.08 28.513-18.246 58.547-9.076 89.557 3.564 12.056 11.2 21.365 21.868 28.176 2.027 1.295 6.206 2.154 4.806 5.122-1.233 2.618-5.157 1.871-8.021 1.05-1.067-.306-2.088-.87-3.038-1.46-11.944-7.437-21.747-16.983-27.086-30.167-11.333-27.985-10.054-56.302-1.232-84.652 2.857-9.185 7.56-17.5 13.776-26.699M57.341 75.443c-1.608.039-2.192 1.366-2.821 2.445-5.934 10.203-11.358 20.692-15.005 31.922-1.25 3.845-4.676 7.145-3.716 11.883 2.252-1.177 3.249-2.792 3.352-5.055.176-3.87 2.138-7.13 3.72-10.517 4.79-10.256 9.568-20.519 14.35-30.78l20.45-26.815c-4.64 4.155-9.161 8.359-12.623 13.552-2.863 4.294-7.022 7.82-7.707 13.365M.773 257.897c.422-19.578 3.106-38.883 9.892-57.162 7.125-19.19 10.739-39.075 15.173-58.892 8.066-36.066 21.91-69.615 47.868-96.944 21.702-22.85 47.972-37.65 79.278-42.278C175.833-.757 198.597.53 220.832 7.522c2.306.725 4.687 1.38 7.178.96 21.664-3.649 42.26.198 62.207 8.78 24.357 10.478 45.911 24.984 63.849 44.602 13.767 15.056 24.642 32.097 31.026 51.45 7.26 22.01 10.442 44.626 5.966 67.865-1.054 5.462-.628 11.542-2.21 16.592-1.948 6.218-2.8 12.649-4.83 18.752-3.468 10.432-4.67 21.31-7.048 31.95-2.993 13.39-8.063 26.047-14.036 38.312-8.3 17.045-18.766 32.889-32.235 46.115-11.99 11.776-24.378 23.207-39.312 31.84-10.672 6.17-20.883 13.217-31.968 18.77-35.797 17.933-73.508 27.352-113.702 24.893-31.058-1.9-59.664-11.407-84.875-29.924-35.214-25.865-54.53-60.885-58.945-104.23-.552-5.433-.756-10.9-1.124-16.352" fill="#000" fill-rule="evenodd"/></svg>