<svg width="350" height="484" viewBox="0 0 350 484" xmlns="http://www.w3.org/2000/svg"><g fill="#000" fill-rule="evenodd"><path d="M13.445 153.728c-.21-.786-.611-1.21-1.351-1.066-1.275.245-1.988 1.029-2.06 2.345-.04.722.384.861.985.755 1.234-.22 1.807-1.183 2.426-2.034M6.927 385.533c1.26-3.54 2.075-7.193 3.133-10.782-2.074 3.289-3.197 6.864-3.133 10.782m9.33-239.147c5.253-5.662 10.734-11.1 16.3-16.455-6.764 4.176-11.99 9.865-16.3 16.455m103.509-56.045c10.843-4.904 19.862-12.252 28.47-20.17-8.98 6.747-17.948 13.5-27.535 19.384-.343.211-.624.522-.935.786m124.01 272.505c-3.151 10.768-9.408 19.9-12.557 30.352 3.961-2.794 14.19-26.845 12.557-30.352m-127.18 107.05c2.114 0 4.248.183 6.34-.033 8.573-.88 17.033-2.507 25.492-4.109 12.55-2.376 24.127-7.709 36.004-12.085 5.48-2.021 10.72-4.776 14.433-9.636 12.27-16.065 22.147-33.36 29.159-52.448 5.597-15.234 12.879-29.841 18.86-44.945 4.272-10.78 6.997-22.077 8.219-33.668 1.017-9.657.446-19.342.515-29.02.056-7.957-.084-15.909.417-23.893.352-5.622-.91-11.48-1.392-17.24-.85-10.143-.697-20.16 2.385-29.998 2.845-9.078 6.7-17.72 11.488-25.886 9.69-16.533 21.839-31.261 34.581-45.481 6.845-7.637 13.558-15.348 19.217-23.908 10.413-15.75 15.41-33.145 14.98-51.98-.338-14.725-6.788-26.157-19.49-33.925-22.081-13.5-45.394-17.821-70.42-9.6-19.381 6.368-36.638 16.486-52.425 29.337-9.846 8.016-18.835 16.988-28.654 25.027-13.373 10.951-26.959 21.576-42.71 29.022-12.188 5.764-25 9.818-37.886 13.63-11 3.253-21.49 7.645-31.401 13.41-11.438 6.653-21.097 15.164-27.783 26.76-.795 1.382-.825 1.364-2.634 1.402-.55.012-.584.468-.768.834-1.673 3.338-2.765 6.82-2.81 10.596-.03 2.55.954 6.196.081 7.424-2.803 3.937-.692 7.752-.176 11.07.642 4.117 1.72 8.388 2.982 12.512 3.164 10.354 6.8 20.522 11.957 30.034 4.73 8.725 9.31 17.528 10.675 27.41.394 2.864 3.846 6.134.161 9.193 0 .001.259.286.369.457 1.956 3.014 2.944 6.417 3.093 9.912.144 3.34 1.338 6.46 1.48 9.762.232 5.327 2.208 10.505 1.066 15.976-.518 2.49-.398 5.131-.402 7.705-.01 5.727-1.952 11.184-2.252 16.926-.113 2.15-1.991 4.883-3.026 7.346-3.71 8.829-10.292 15.553-16.066 22.92-5.433 6.928-11.537 13.721-12.108 23.22-.23 3.833-1.37 7.878.607 11.474 5.319 9.665 8.116 20.622 15.413 29.287 5.68 6.745 9.493 14.916 16.412 20.776 6.767 5.73 13.227 11.9 21.045 16.134 3.836 2.078 7.727 4.205 12.232 5.2 10.823 2.388 21.71 3.25 32.74 3.1m89.572-446.043c.598-.18 1.244-.27 1.785-.558 13.512-7.186 27.593-12.877 42.528-16.371.54-.127 1.28-.108 1.6-.938-1.01.145-1.96.257-2.9.42-12.4 2.157-23.895 6.89-35.06 12.493-2.778 1.396-5.82 2.479-7.896 5.02-3.33.232-5.361 3.042-8.242 4.197a1.153 1.153 0 00-.28 1.899c.257.258.61.425.768.12 1.677-3.197 5.744-3.447 7.697-6.282m-37.745 48.64c3.865-2.405 6.94-5.69 10.01-8.977-3.305 3.024-7.3 5.292-9.947 9.042-2.822 1-4.626 3.291-6.64 5.312a20.614 20.614 0 006.577-5.378m85.288 307.463c-2.243 6.137-4.392 12.237-8.933 17.29-2.744 3.054-4.932 6.73-6.743 10.433-.656 1.345-1.861 1.751-2.547 2.953-1.602 2.805-2.19 5.974-4.241 8.7-4.623 6.144-9.186 12.315-14.012 18.315-3.185 3.96-6.165 8.119-9.474 11.985-6.166 7.202-14.036 12.033-22.772 15.472-10.094 3.974-20.094 8.287-30.413 11.583-19.229 6.141-38.856 8.615-59.168 6.192-12.237-1.46-24.155-3.772-34.643-10.021-16.772-9.996-30.6-23.308-40.365-40.482-.366-.643-.837-1.227-1.277-1.825-3.992-5.43-7.595-11.038-9.428-17.65-.908-3.27-2.25-6.41-3.73-9.496-4.392-9.151-3.548-18.368-.001-27.548 3.57-9.239 9.533-17.083 16.2-24.037 8.907-9.293 13.086-20.07 14.417-32.527 1.238-11.586-.796-22.807-2.86-34.07-1.266-6.912-2.398-13.851-3.758-20.743-2.194-11.111-7.306-21.014-12.554-30.942-6.833-12.927-12.055-26.536-15.213-40.887-2.642-12.008-1.34-23.8 2.75-35.121 2.355-6.523 5.418-12.925 10.381-18.208 4.832-5.146 9.708-10.184 15.47-14.293 13.85-9.879 29.117-16.809 45.305-21.853 18.482-5.76 36.482-12.573 52.273-24.174 11.7-8.596 22.834-17.873 33.527-27.687 14.56-13.364 29.81-25.804 47.435-35.004C226.42 7.393 244.264.45 263.793.626c29.393.273 54.56 10.66 72.388 34.835 13.184 17.883 15.32 38.373 11.013 59.766-.778 3.863-1.565 7.725-2.468 11.56-2.32 9.85-6.325 18.907-12.21 27.214-3.43 4.842-7.13 9.478-10.561 14.267-4.03 5.622-8.517 10.773-13.155 15.795-5.372 5.817-10.13 12.058-14.654 18.52-1.576 2.25-4.074 3.616-5.598 6.038-5.763 9.158-11.754 18.18-15.868 28.254-2.221 5.437-4.486 10.74-4.923 16.867-.267 3.757-.038 7.501-.365 11.235-.49 5.592.474 11.103 1.363 16.57.342 2.097-2.202 3.795-1.654 3.942 2.965.787.88 2.453.94 3.664.036.716-.418 1.502-.256 2.16 2.752 11.168 1.563 22.576 1.797 33.857.219 10.472 1.134 21.143-1.698 31.407-1.033 3.744-1.787 7.588-2.877 11.33-1.308 4.488-3.722 8.698-4.124 13.38-.567 6.596-3.9 12.124-6.301 18.02-.132.324-.618.505-.945.762.308-3.512 3.184-6.13 3.285-9.742-2.464 5.237-5.541 10.198-6.818 15.971l3.607-6.342"/><path d="M145.46 123.773c6.884-4.04 12.466-9.576 17.691-15.518-5.875 5.2-11.65 10.51-17.69 15.518zm39.794-34.576l-.686-.732c-6.033 5.511-12.567 10.46-17.805 16.861l18.491-16.129zM46.579 381.231c-3.536 3.51-5.145 14.393-2.826 16.634.662-5.512.68-11.23 2.826-16.634zm26.763-219.248c-8.294 5.621-15.697 12.07-19.28 21.884 5.703-7.935 11.969-15.36 19.28-21.884zm123.239-82.784c13.868-10.863 28.41-20.506 44.683-27.35-10.66 1.412-40.23 20.952-44.683 27.35zm-4.878 259.096c-3.314 6.619-5.367 13.707-7.318 20.78-1.996 7.232-4.69 14.214-7.028 21.314-2.21 6.711-5.402 13.1-8.162 19.631 11.811-19.048 16.216-40.712 22.508-61.725zM73.05 232.052c.055-.407-.035-.994.197-1.183.42-.343.637.18.917.488.79.868.42 2.18 1.505 3.049 2 1.601 3.377 3.617 4.373 6.163.85 2.171 3.168 3.75 4.749 5.662.353.426.795 1.146.34 1.752-.846 1.123-.168 1.491.764 1.755 1.151.324 1.76 1.195 2.15 2.198 1.411 3.614 3.289 7.046 3.709 11.027.27 2.569.685 5.638 1.637 7.512 2.649 5.222 2.745 10.727 2.494 15.957-.228 4.736-1.138 9.586-.92 14.33.188 4.099-1.874 7.44-2.447 11.256-.695 4.621-3.898 8.654-4.53 13.457-.39 2.95-3.503 5.19-3.476 7.527.06 5.4-4.723 8.307-5.568 13.178-.269 1.549-.904 3.869-2.25 5.342-2.769 3.025-3.578 7.212-6.445 10.225-3.61 3.795-5.483 8.876-9.332 12.642-2.311 2.264-4.118 5.183-6.141 7.788-1.833 2.356-1.669 6.01-2.274 9.125-.878 4.51 1.71 8.021 2.877 11.983 2.79 9.464 8.606 17.288 15.414 23.6 13.295 12.33 29.219 16.382 46.924 9.929 1.798-.655 3.593-1.314 5.406-1.923 10.63-3.57 19.814-9.47 28.345-16.71 11.163-9.477 16.45-22.691 22.634-35.2 2.164-4.374 3.005-9.737 4.639-14.595 1.118-3.325 2.322-6.646 3.091-10.06.776-3.44 1.833-6.785 2.864-10.14 1.027-3.348 2.475-6.583 3.29-9.977.725-3.018 2.21-5.714 2.835-8.842.835-4.182 2.2-8.348 3.335-12.521 4.084-15.01 7.138-30.217 8.978-45.673 1.02-8.565 1.762-17.212 3.536-25.632 5.731-27.214 18.263-51.259 35.523-72.869 7.715-9.658 15.9-18.944 23.976-28.309 11.565-13.408 17.84-29.367 22.567-46.109 2.94-10.409 2.431-20.692-1.389-30.737-2.179-5.725-5.425-10.506-12.272-11.636-6.376-1.052-12.598.458-18.626 1.573-3.585.664-7.49 2.369-11.088 4.109-8.63 4.176-17.383 8.12-24.887 14.198-1.787 1.445-4.012 1.639-5.798 3.083-2.285 1.848-3.882 4.344-6.376 6.004-1.431.952-3.147 1.045-4.467 2.265-8.37 7.733-17.833 14.237-25.388 22.905-2.623 3.011-5.862 5.477-8.72 8.293-10.728 10.568-23.212 18.476-37.276 23.642-17.242 6.334-33.332 14.824-48.384 25.198-5.756 3.966-11.92 7.707-16.048 13.737-2.392 3.498-5.469 7.064-5.842 11.07-.554 5.927-1.157 12.117.862 18.021.486 1.425-.382 3.41-.08 3.897 1.168 1.87 1.872 3.984 3.137 5.777 2.732 3.875 6.498 7.188 6.956 12.399zm-3.274 114.3c.909-.343 1.134-1.251 1.447-1.978 2.983-6.906 6.207-13.728 8.203-21.013 1.168-4.262 3.216-8.325 3.15-12.895-2.062 8.083-5.655 15.621-8.207 23.523-1.354 4.193-3.887 7.963-4.525 12.425-3.645 4.808-5.435 10.583-8.382 15.756 3.118-5.094 6.782-9.907 8.314-15.819zM205.1 327.135c-.126-.778-.004-1.469-.78-1.86-.137 1.197-1.1 2.34.484 3.39.92.608.055 1.598-.181 2.335-2.123 6.627-4.187 13.283-6.237 19.92-1.95 6.32-4.279 12.553-5.74 19.026-.734 3.249-2.31 6.17-3.503 9.235-.55 1.408-1.012 2.752-1.012 4.282-.001 3.112-.217 3.193-3.094 1.557-.24-.136-.604-.054-.993-.079 0 .347-.106.69.016.895 1.835 3.046 1.446 6.698-.71 9.633-1.421 1.936-2.716 3.894-3.33 6.438-.924 3.829-3.549 6.842-6.597 9.36-.277.23-.907.123-.936.656-.172 3.157-2.712 4.67-4.628 6.55-1.83 1.794-4.085 3.105-5.804 5.075-2.941 3.374-6.25 6.168-10.282 8.415-1.861 1.038-3.751 3.008-5.823 3.82-7.657 3.001-15.164 6.36-22.919 9.157-13.103 4.727-26.003 3.34-39.008.185-7.65-1.856-14.566-5.279-20.888-9.98-2.417-1.797-4.373-3.985-6.36-6.207-7.59-8.482-12.911-18.193-15.584-29.232-1.712-7.07-.633-13.982 2.908-20.346.932-1.675 1.649-3.87 4.792-3.491 1.37.165 2.729-2.382 3.79-3.999 7.509-11.43 13.614-23.57 18.53-36.325 5.176-13.426 9.692-26.993 11.436-41.405 1.266-10.462-.148-20.495-2.697-30.591-2.042-8.086-6.262-14.846-11.08-21.428-3.61-4.932-6.84-10.14-10.404-15.108-1.264-1.76.331-2.883.705-5.146-1.95 2.653-2.271 2.12-3.102-.062-.83-2.181-2.354-4.218-3.556-6.333-2.573-4.527-4.043-9.462-4.092-14.547-.019-1.93-1.027-3.54-.766-5.365.327-2.302.488-4.663 1.14-6.877 1.149-3.916 1.87-8.044 5.698-10.702 1.057-.735.43-3.014 1.631-4.303 5.142-5.521 9.983-11.404 16.413-15.498 15.299-9.742 31.322-18.038 48.108-25.03 11.686-4.868 22.844-11.017 32.055-20.062 13.555-13.308 27.812-25.835 42.48-37.89 13.906-11.426 28.806-21.231 45.893-27.367a81.728 81.728 0 0122.132-4.629c10.851-.749 18.977 4.19 25.281 12.393 12.107 15.755 14.95 33.486 10.29 52.553-3.13 12.824-7.743 25.121-14.249 36.632-3.054 5.402-5.964 10.87-11.001 14.98-2.403 1.961-3.69 5.272-5.537 7.934-6.317 9.098-14.263 16.9-20.55 26.053-2.8 4.075-5.166 8.375-7.805 12.524-5.759 9.054-9.69 19.048-14.02 28.793-3.8 8.55-5.174 17.894-6.543 27.154-1.474 9.977-3.035 19.945-4.734 29.886-.98 5.743-1.665 11.672-3.708 17.052-1.418 3.738-1.471 7.72-3.169 11.343-.975 2.078.073 4.924-2.36 6.636z"/><path d="M169.754 286.212l.959.504c1.025-2.72 3.94-4.656 2.599-8.372l-3.558 7.868zm-61.107-102.333c-6.654 1.25-13.479 7.516-12.785 11.761 3.222-5.261 7.892-8.632 12.785-11.76zm56.384-40.217c-.195-.26-.39-.517-.585-.774l-26.599 23.055.566.66 26.618-22.94zm25.596-24.452c8.335-6.154 16.9-11.952 26.106-16.774C226.04 97.56 235.453 92.924 245 88.6c-19.396 7.922-38.562 16.27-54.373 30.61zM130.74 368.077c2.243-3.655 4.964-6.878 6.793-10.875 4.14-9.042 8.947-17.784 12.887-26.938 5.873-13.64 12.053-27.134 19.299-40.114.453-.813.874-1.631-.329-2.81-14.411 26.409-24.657 54.478-38.65 80.737zm60.728-234.778c-3.757 1.681-5.614 5.315-8.31 8.088-3.542 2.058-5.5 5.765-8.652 8.251-5.434 4.286-11.012 8.435-16.095 13.115-10.52 9.686-22.135 17.597-35.015 23.823-4.781 2.313-10.36 2.807-14.445 6.805-2.5 2.446-5.537 4.423-5.763 8.253-.334 5.674.553 11.157 3.287 16.258 5.055 9.43 11.864 17.672 17.815 26.495 6.185 9.169 11.712 18.498 13.12 29.916 1.344 10.922.535 21.748-.107 32.592-.13 2.196-1.617 4.29-1.698 6.835-.111 3.553-.148 7.502-2.404 10.413-4.07 5.255-5.42 11.664-8.085 17.495-.873 1.913-.338 4.732-2.017 6.195-2.24 1.953-2.844 4.525-3.916 6.981-.418.959-.999 1.922-1.735 2.653-2.427 2.414-3.956 5.6-5.647 8.355-3.32 5.408-7.015 10.195-11.678 14.438-1.343 1.224-3.466 1.075-4.273 2.983-.807 1.904-2.292 3.313-3.847 4.626-1.59 1.342-2.401 3.096-3.032 5.148 1.165.334 1.917-.14 2.684-.422 4.827-1.769 8.955-4.887 13.617-7.008 8.177-3.72 15.076-9.116 20.538-16.33 4.087-5.397 6.86-11.505 9.786-17.529 5.796-11.939 11.687-23.84 17.123-35.945 3.045-6.78 6.212-13.492 9.582-20.103 5.599-10.983 10.588-22.247 15.45-33.555 3.895-9.056 7.118-18.393 9.228-28.073 1.84-8.452 5.048-16.463 8.184-24.487 5.972-15.28 12.046-30.499 21.89-43.861 8.846-12.006 17.804-23.931 25.797-36.545 5.966-9.415 11.144-19.16 13.685-30.106.273-1.175 1.143-2.715.145-3.58-.846-.731-2.226.23-3.295.653-11.208 4.436-21.997 9.717-32.437 15.759-1.885 1.091-3.561 3.559-6.446 2.352-.407-.17-1.258.402-1.01.89.874 1.73-.823 1.71-1.473 2.139a401.283 401.283 0 00-12.163 8.358c-3.133 2.24-5.31 5.432-8.388 7.675zm-82.73 221.296c.905-.063 1.164-.797 1.496-1.448 4.201-8.244 7.316-16.967 11.131-25.378 1.83-4.037 1.204-8.881 4.277-12.472.526-.614.36-1.22-.373-1.534-.962-.413-1.48.228-1.588 1.015-.417 3.066-1.882 5.755-2.9 8.61-2.62 7.353-4.866 14.813-8.373 21.864-1.458 2.933-3.074 6.02-3.596 9.413-2.592 3.435-4.442 7.259-5.889 11.293 1.815-3.85 5.297-6.846 5.815-11.363zm113.847-178.727c1.138 1.926.752 3.136-.013 5.002-1.864 4.549-5.672 8.123-6.391 13.198-.256 1.812-1.663 3.18-2.524 4.704-2.193 3.88-2.614 8.393-4.587 12.173-1.871 3.585-2.674 7.513-4.582 11.019-1.014 1.86-.657 4.178-1.977 5.983-.89 1.215-3.092 8.782-3.348 10.239-.642 3.668-1.388 7.318-2.128 10.968-.127.627-.409 1.271-1.262 1.136-.88-.138-1.306.262-.968 1.043 1.265 2.929-.245 5.553-1.37 7.852-3.273 6.684-6.115 13.554-8.988 20.396-.57 1.356-3.213.988-2.27 3.69.475 1.365-1.061 3.73-2.124 5.494-1.035 1.723-1.731 3.645-2.669 5.43-6.905 13.165-13.25 26.59-19.263 40.189-3.335 7.542-7.315 14.796-10.828 22.263-.887 1.887-1.468 4.005-2.064 6.023-.548 1.854-1.352 4.513-3.616 5.678-.42.216-.682.407-.82.838-2.768 8.72-10.208 13.281-16.842 18.389-4.75 3.657-10.543 5.818-15.932 8.345-3.335 1.563-6.402 4.05-10.287 4.6-3.894.551-7.763 1.254-11.711 1.334-3.83.077-7.371-.82-10.543-3.02-1.662-1.153-1.914-2.617-1.189-4.468 1.797-4.589 4.506-8.43 8.679-11.158 1.598-1.047 3.306-1.953 4.37-3.661.76-1.22 2.046.315 3.456-1.072 4.99-4.908 8.099-10.877 11.3-16.876 6.63-12.427 11.564-25.567 16.317-38.78 2.055-5.717 3.125-11.678 4.06-17.671.592-3.784.99-7.57 1.243-11.387.116-1.77.829-3.223 3-2.146 1.296.643 1.695-.299 2.303-.965.431-.475.343-1.017-.072-1.416-.758-.725-1.416.03-2.009.32-2.431 1.182-3.225.477-3.102-2.182.342-7.326.528-14.655-1.375-21.857a47.686 47.686 0 00-4.01-10.286c-5.065-9.513-11.608-18.087-17.394-27.144-4.232-6.63-8.585-13.258-9.475-21.35-.208-1.883-1.702-4.178.902-5.707.145-.083.272-.35.26-.522-.505-7.401-.276-7.587 4.754-12.774 3.265-3.367 7.246-5.709 11.302-7.573 14.926-6.863 27.503-16.849 39.815-27.535 14.988-13.009 28.642-27.524 44.213-39.796 17.058-13.442 36.57-22.653 57.282-29.016 10.932-3.358 19.032 4.8 16.649 16.145-2.38 11.328-6.676 21.93-12.382 32.018-6.55 11.58-14.057 22.549-21.32 33.663-1.992 3.05-3.682 6.358-6.112 9.171-1.26 1.459-2.195 2.74-4.358 1.059z"/><path d="M191.468 133.3c-1.883 3.605-4.847 6.104-8.31 8.087 2.696-2.773 4.553-6.407 8.31-8.088"/></g></svg>