<svg width="138" height="111" viewBox="0 0 138 111" xmlns="http://www.w3.org/2000/svg"><path d="M57.79 26.553c9.171-1.924 18.105-3.809 27.045-5.668 3.335-.693 6.658-1.544 10.033-1.927 4.36-.497 6.397 1.95 7.098 5.548 1.889 9.697-3.048 16.443-8.841 23.033-1.467 1.668-2.76 3.492-4.097 5.275-1.89 2.522-1.773 2.797 1.447 3.483 5.641 1.2 11.249.215 16.855-.335 7.728-.76 15.39-2.176 23.167-2.437 3.18-.107 6.618 1.951 6.851 4.178.243 2.3.214 4.652.072 6.967-.394 6.364-3.721 11.475-7.385 16.366-6.691 8.933-13.083 18.103-20.63 26.368-1 1.094-1.812 2.577-3.32 2.863-1.478.282-3.907 1.041-2.727-2.225.186-.515.29-1.008-.136-1.479-2.863-3.165-.81-5.822.914-8.485 5.032-7.783 10.094-15.549 15.116-23.339.487-.755 1.552-1.584.798-2.51-.54-.662-1.608-.005-2.441.02-6.053.189-11.8 2.28-17.792 2.846-3.295.312-6.584.536-9.882.067-2.117-.303-4.203-.565-5.598-2.548-.396-.562-1.18-1.086-1.85-1.182-4.002-.57-4.202-3.967-5.182-6.78-2.698-7.744-1.644-15.053 2.582-21.994.147-.242.098-.606.178-1.192-2.197.294-4.18.103-6.397.736-7.944 2.271-15.87 4.725-24.21 5.39-3.29.262-5.904-.956-8-2.98-1.803-1.745-.992-4.741-2.31-7.02-2.56-4.426-.658-8.619 1.525-12.602 1.018-1.856 2.257-3.592 3.409-5.403-4.161-1.576-7.973.44-11.751 1.123-5.634 1.016-11.267 1.445-16.934 1.803-3.635.231-7.177 1.266-10.945.445-3.115-.68-3.047-3.436-3.754-5.275-.49-1.27.775-3.368 3.343-3.626C21.973 12.25 39.101 7.169 55.95 1c3.267-1.195 6.727-.5 7.37 1.64.623 2.069.87 4.289 1.012 6.46.352 5.403-2.005 9.914-4.952 14.205-.585.852-1.547 1.504-1.588 3.247" fill="#000" fill-rule="evenodd"/></svg>