<svg width="170" height="270" viewBox="0 0 170 270" xmlns="http://www.w3.org/2000/svg"><g fill="#000" fill-rule="evenodd"><path d="M139.646 252.936c-1.224 7.627-1.904 8.738-9.045 10.623-3.706.976-7.607 1.202-11.409 1.834-.632.103-1.75.609-1.726.828.52 4.823-2.952 2.554-4.589 2.318-5.385-.78-10.782-1.706-16.02-3.137-2.54-.692-4.821-1.818-6.206-5.168-1.52-3.678-5.363-6.364-8.032-9.615-.88-1.07-1.896-2.688-1.664-3.812.196-.948 2.084-1.579 3.263-2.283.74-.444 1.555-.765 2.335-1.14-.793-.386-1.594-.75-2.375-1.157-1.023-.531-2.029-1.094-3.042-1.642.689-1.162 1.254-2.43 2.115-3.448.493-.577 1.477-1.066 2.227-1.047 5.69.139 7.747-3.91 9.166-8.231 3.226-9.82 6.046-19.774 9.271-29.596.868-2.642 2.033-5.723 4.069-7.328 3.642-2.87 8.334-1.192 11.476 3.224 7.047 9.91 11.437 21.114 14.807 32.615 2.496 8.514 3.636 17.427 5.38 26.162M25.004 182.509l27.709-3.801.289.681c-2.743.938-5.422 2.198-8.24 2.76-10.525 2.094-21.15 3.1-31.753.787-1.75-.384-3.143-2.485-4.651-3.846-.379-.344-.468-1.186-.853-1.312-5.266-1.751-5.56-6.884-6.563-10.883-.905-3.605-.102-7.773.586-11.577.272-1.51 2.009-3.256 3.517-3.954 5.751-2.672 7.432-7.987 9.404-13.238 2.66-7.084 5.316-14.174 8.194-21.172 2.524-6.136 10.26-6.933 14.05-1.44 10.205 14.784 16.27 31.225 19.068 48.909.282 1.786.265 3.638.204 5.454-.099 3.049-1.154 5.452-4.55 6.151-7.39 1.527-14.768 3.126-22.161 4.644-1.46.298-2.969.361-4.455.533.07.436.137.87.205 1.304M109.227 67.71c-.041-.45-.081-.898-.123-1.346-2.794.236-5.594.422-8.374.77-.386.049-.67.897-1.002 1.374.412.214.859.66 1.23.606 2.764-.412 5.514-.924 8.27-1.404m-35.369-4.25l-1.074 3.003c-.389-.371-.744-.55-.752-.744-.114-2.619-.093-5.247-.312-7.855-.059-.679-.8-1.32-1.284-1.935-.62-.79-1.295-1.534-1.947-2.3.81-.614 1.588-1.276 2.443-1.82.321-.203.913 0 1.216-.214.966-.683 1.854-1.476 2.772-2.227-.885-.553-1.723-1.216-2.67-1.629-.876-.381-1.868-.497-3.174-.82 1.726-1.944 1.879-5.575 6.03-4.116.43.151 1.704-.957 1.983-1.706 1.88-5.04 3.836-10.075 5.268-15.248.663-2.392.02-5.115.301-7.652.43-3.876 1.117-7.725 1.75-11.577C84.84 3.996 92.174-.53 94.44.637c1.402.723 2.565 2.103 3.551 3.403 9.645 12.732 13.995 27.639 17.181 42.936 1.02 4.9 1.308 9.988 1.542 15.009.181 3.863-1.602 6.662-5.675 7.716-2.681.693-5.27 1.734-7.913 2.572-1.264.4-3.965-.3-1.748 2.5-.703.187-1.532.714-2.089.505a352.516 352.516 0 01-13.035-5.167c-1.337-.56-2.395-1.926-3.651.33-.384.687-2.246.738-3.406.665-.269-.016-.171-1.922-.701-2.602-1.336-1.714-2.932-3.223-4.638-5.044"/><path d="M135.475 266.563l-15.692 2.797c-.096-.67-.19-1.337-.284-2.004 2.548-.286 5.1-.524 7.64-.872 2.745-.375 5.474-.854 8.209-1.29l.127 1.37M126.285 120.375c-.723-.635-.89-.836-1.102-.958-1.553-.9-3.115-1.786-4.674-2.678 1.448-1.727 2.687-4.675 4.38-4.963 5.974-1.018 7.676-5.278 9.192-10.031 2.21-6.932 4.207-13.952 6.825-20.729.828-2.143 3.186-4.836 5.147-5.111 2.461-.344 6.567.769 7.631 2.605 3.874 6.681 7.346 13.729 9.885 21.014 2.608 7.487 4.237 15.36 5.723 23.17.753 3.964.489 8.186.166 12.25-.1 1.25-1.698 2.968-2.984 3.431-4.707 1.698-9.572 2.956-14.361 4.375l1.853 2.104c-.574.3-1.284.981-1.692.832-1.35-.496-2.56-1.356-3.882-1.947-.966-.433-2.021-.927-3.035-.924-1.355.004-3.105 1.138-3.994.615-4.157-2.45-9.631-2.193-12.484-7.655-1.73-3.313-2.756-8.062-7.596-9.35-.589-.158-1.044-2.194-.891-3.265.1-.705 1.325-1.408 2.188-1.805 1.01-.465 2.175-.595 3.705-.98"/><path d="M166.748 141.447c-3.228 2.356-6.7 4.337-11.091 2.389l11.091-2.39"/></g></svg>