<svg width="299" height="270" viewBox="0 0 299 270" xmlns="http://www.w3.org/2000/svg"><g fill="#000" fill-rule="evenodd"><path d="M296.977 140.156c-.107.297-.373 1.042-.711 1.98l1.07.514c.227.828 1.488 1.705.721 2.825-.69 1.008 1.133 2.074-.26 2.892.237 2.114-1.252 3.64-2.233 5.117-.89 1.34-1.106 3.013-2.452 4.177-1.17 1.012-1.828 2.619-2.716 3.968l-2.482.11.525 1.68-1.182 1.334.895 2.75-1.422 1.622 1.392.496-1.932 1.372c.12.142.309.361.603.705-2.118.788-4.005-1.11-6.34-.193-1.444 1.041-2.515 3.165-4.66 3.95-.826.304-.119 1.82-1.536 1.642-.505-.064-.132 1.56-1.314 1.245-.442 1.471-1.755 2.062-2.79 2.99-.86.767-1.646 1.768-2.338 2.768-.577.834-1.193 1.64-1.805 2.45-.552.734-1.201 1.409-1.657 2.197-.387.672-.354 1.821-.877 2.125-.704.408-1.185.85-1.336 1.799l-1.539-.918c-1.322.647-2.647 1.262-3.964-.355v-3.36c-2.53-1.425-5.177-2.67-6.362-5.894.093-1.063-.423-2.57.6-3.813-1.486-2.966-.196-5.477 1.234-7.95 1.722-2.978 3.98-5.52 6.629-7.86-1.557-2.336-3.185-4.513-4.512-6.858-.913-1.614-1.922-3.374-1.972-5.22-.052-1.912-.654-3.908.487-5.848.509-.868.02-2.126.59-3.27.344-.687.556-1.451 1.084-2.11.285-.356.272-.951.507-1.895.527-.489 1.848-1.148 2.124-2.106.399-1.391 2.18-.861 2.154-2.489l.982.744 2.44-.72.905 1.717-2.133 3.861 3.847-.381c.425.426.652.651.903.902l-1.426 2.803 2.748.282c-.238 1.131-.475 2.266-.708 3.382-.409.363-.85.758-1.304 1.164.288.287.406.44.432.426.418-.232.825-.484 1.321-.784l.407 1.08c-.906.46-1.767.896-2.749 1.392.455.153.817.273 1.486.496l-2.323 2.328 3.192 2.522c1.575.3 2.84-.365 4.077-1.435 2.865-2.472 6.013-4.63 8.835-7.115 2.889-2.546 5.962-5.039 8.019-8.449.48-.798 1.326-1.375 2.052-2.1h3.367c.185.233.501.636.83 1.049l-1.239 3.538 2.928-.805.888 1.534M93.901 207.55l-2.994.928.67-1.439c-.735-1.106-1.566-2.096-3.085-1.877l-.298-1.138H85.55c-.264-.264-.493-.39-.553-.57-.404-1.22-.49-2.671-1.225-3.629-.945-1.23-.475-2.438-.518-3.63-.037-.968.354-1.96.592-2.931.855-3.473 2.176-6.776 3.858-9.917a52.088 52.088 0 013.469-5.597c1.242-1.744 2.699-3.336 4.103-5.048-.381-.244-.799-.528-1.233-.785-4.197-2.483-7.873-5.609-11.282-9.075-1.609-1.636-1.618-3.831-2.087-5.852-.19-.808-.031-1.699-.031-2.552.86-1.64 2.593-1.779 4.275-2.448.566.998 1.148 2.023 1.805 3.177l.673-.495c.22.218.605.428.713.737.669 1.902 2.223 2.87 3.874 3.693 3.359 1.68 6.749 3.293 10.356 5.045.843-.892 1.687-2.26 2.912-2.944 1.129-.632 1.187-2.437 2.948-2.264l-.687-.842 1.848-1.293.967-2.131 1.779-.103-.723-.93c1.359-.2 1.45-1.606 2.305-2.362.903-.799 1.543-1.896 2.4-2.994l.765.563.519-1.225.83.67c.418-2.247 1.693-4.05 3.047-5.67 1.395-1.67 2.65-3.59 4.933-4.707l1.104.908c-.903 1.733-1.777 3.45-3.626 4.355v2.56c.438-.107.882-.087.975-.259.371-.69.633-1.44.78-1.794l4.33-3.567c.09 1.196.146 1.976.202 2.725l-1.224.502c.099.137.222.403.288.388.776-.16 1.545-.36 2.49-.594l.922 1.622-.613.68c.134.927 1.249 1.745.386 2.806-.25-.226-.474-.428-.701-.636-.106.199-.311.409-.269.541.117.376.337.72.583 1.205-.176 1.626-1.475 2.705-2.68 3.802-1.14 1.039-2.395 1.95-3.861 3.127.603.346 1.127.65 1.717.99-.368.707-.59 1.134-.826 1.582.136.152.34.375.657.724l-2.123.344.65 1.656h-2.13l-1.069 2.192.826.889c-.653.12-1.239.23-2.09.39.206.544.395 1.034.616 1.618l-1.903.28.711 1.917c-.833-.324-1.44-.56-2.172-.843l-1.04 1.98c.123.233.17.487.315.566.255.138.599.113.85.253.98.547 1.21 1.814 2.173 2.358 1.038.586 1.49 1.593 2.152 2.49.596.807 1.038 1.487.971 2.51-.023.35.289.72.483 1.158-.17.287-.411.696-.74 1.257-.866.1-1.495 1.258-3.073.647-2.756-1.069-5.625-2.027-8.618-2.387-.167-.02-.304-.285-.576-.557l-2.836 3.197-.138 1.163c-.612.096-1.199.19-2.11.332l1.72 2.417-1.901-.556-.694.82c.371 1.025.073 1.651-1.127 2.333-.36 1.29-.704 2.531-.992 3.566-.542.2-.845.31-1.235.455l.7.7c-.956.733-2.053 1.325-2.795 2.215-.67.801-.95 1.928-1.47 3.064.05.077.26.391.594.89l-2.064 2.125.781.975-1.448 1.653v1.866l-2.113 2.035M172.596 220.302c1.479 1.788 1.48 1.792 3.274.8.05.573.033 1.072.156 1.532.088.326.365.602.543.879l-.571.571 1.573.737c-.727 1.036-1.414 2.012-2.099 2.99.884 1.588-.986 1.87-1.254 2.72-.414 1.315-2.013 1.598-2.058 3.002-.053 1.638-1.733 1.84-2.463 2.794-.634.83-1.76 1.372-1.906 2.43l.78 1.335c-.948.535-1.772 1.004-2.6 1.472l-1.996.943-2.024 2.387v.628c-2.043 1.5-3.95 2.905-6.166 4.534.634.322 1.018.518 1.653.843l-2.728 3.816 7.157 2.442-.705 1.416 3.191 1.138v1.392l1.987 1.826.112 2.156 1.16 1.16-2.943 2.45c-.694.772-1.416.628-2.193.113a1.575 1.575 0 00-.853-.239c-3.304.073-6.29-1.185-9.297-2.285-2.218-.81-4.352-1.845-6.652-2.836-.628.626-1.605 1.1-1.73 2.39-1.329.315-2.691.639-3.965.94l-1.708-1.728.711-.785c-.316-.66-.658-1.37-.862-1.792-.99.153-1.864.289-2.719.42-.473-.934-.897-1.777-1.333-2.64l-.417.418-2.407-2.443c.306-2.22-1.115-4.77-.733-7.526.08-.577-.362-1.413-.828-1.85-1.887-1.771-1.968-4.331-2.855-6.51-.34-.832-.701-1.888-.73-2.894-.05-1.597-.236-3.237.037-4.788.432-2.454.897-5.07 3.754-6.036.944-.32 1.984-.355 3.229-.561v4.99l2.89-1.86.51 1.492.481-.366v2.944c.55-.28.949-.481 1.324-.673 1.358 1.188 1.322 2.709 1.135 4.273l1.416.5c-.252.686-.505 1.367-.81 2.19.37-.068.555-.048.659-.131.248-.197.42-.55.692-.653 2.733-1.038 4.108-3.943 6.851-4.954.552-1.986 2.646-2.41 3.87-3.749 1.273-1.391 3.07-2.297 4.606-3.457 1.486-1.125 2.324-3.018 4.264-3.613 1.274-2.32 3.108-4.078 5.39-5.39-.08-1.57 2.082-1.765 2.031-3.422h2.885c.207.205.509.507.81.808-1.381.688-1.886 2.022-2.77 3.432 1.912.396 3.013-1.931 4.814-.857l-1.57.735M165.174 186.48c-.15-1.496 1.956-1.66.958-3.054l-.707.629c-.075-.077-.206-.143-.218-.228-.237-1.568-.142-3.054.97-4.332a158.15 158.15 0 003.61-4.264c.371-.457.6-1.028.965-1.67-.58-1.511-1.374-3.076-2.064-4.632-.74-1.671-.724-3.483-1.529-5.136-.428-.878.689-2.418.427-3.493-.294-1.203-1.004-2.226.033-3.36.021-3.17 2.177-5.146 4.062-7.347h5.33c.313.295.622.589 1.121 1.062l-2.52 3.211.662 1.408c.3 0 .875.173 1.08-.03.891-.874 1.92-.521 2.858-.625l.956 2.073-1.73 2.161 2.907.37v3.068c2.161.07 2.398-2.547 4.218-2.537.826-1.258 2.031-2.133 3.117-3.136 1.252-1.156 2.443-2.381 3.623-3.612 1.087-1.135 2.19-2.265 3.166-3.49 1.004-1.262 1.868-2.637 2.449-3.47l2.992-1.073c.302.43.799.868.926 1.395.097.405-.226.944-.443 1.381-.247.498-.587.948-.583 1.824l2.892-1.22 2.024 3.943c0-.036-.051.594.018 1.21.054.479.257.941.437 1.555-.127.22-.36.629-.574 1.006.322.349.537.58.728.785-1.854 2.969-3.522 6.042-5.556 8.916-1.707 2.412-1.467 2.581-2.718 3.264l.563.624a42462.35 42462.35 0 00-7.592 8.51v1.061l5.965 3.799-.75 1.472c.766.659 1.281 1.925 2.764 1.458l.85 1.69-.736 1.026 2.302 2.306-.83 2.136.68 1.168c-.113.243-.148.494-.287.587-.315.205-.777.245-1.007.505-1.377 1.554-1.623 1.64-3.354 1.05-2.24-.767-4.651-1.218-6.699-2.336-2.743-1.497-5.208-3.503-8.042-5.464-1.19.88-2.525 2.087-3.811 3.461-1.244 1.33-2.883 2.383-5.162 3.062.402-.663.566-.934.921-1.526l-3.822.712-.206-.411 2.16-1.684-1.113-1.114h-2.185l-.997-2.512h-2.652l-.847-2.132M179.054 123.69l-3.432.823c-1.403-1.036-3.08-2.327-4.81-3.538-2.064-1.444-3.857-3.284-6.213-4.302-.546-.235-1.118-.406-1.876-.678-.92-1.376-1.026-3.932-3.721-3.65-1.22-1.115-1.368-3.05-3.15-3.239-.584-.993-.952-2.13-1.718-2.84-3.498-3.245-6.03-7.142-8.206-11.843-.189-1.452-.19-3.387-.503-5.327-.493-3.057 1.136-5.682 3.783-7.376.73-.467 1.107-1.494 2.322-1.385.845.076 1.736-.373 2.858-.649l1.327 1.18c-.902 1.514-2.608 2.47-2.737 4.505 2.007.67 2.907-1.56 4.928-1.817l1.095.978-2.087 3.129c1.382-.437 2.364-.444 2.726-.922.917-1.208 2.399-1.693 3.259-3.037.801-1.252 2.115-2.185 3.459-3.058 1.9-1.233 3.439-3.006 5.22-4.44 2.618-2.108 5.071-4.417 7.987-6.169 1.154-.69 2.007-1.895 2.964-2.898.87-.913 2.254-1.312 2.528-2.673h4.304v2.776l-1.03 1.032c.57-.102 1.139-.183 1.697-.31.568-.13 1.127-.303 1.988-.539-.131 2.067-.032 3.896 1.46 5.229l-.855 1.155 1.966 1.078c-1.012.277-1.355.37-1.825.5.179.408.418.79.505 1.204.088.408.02.848.02 1.267l-3.678 5.045c-.239.027-.744.083-1.485.163l.545.755c-.19.458-.403.966-.641 1.531-2.816-.136-2.836 2.766-4.578 3.896l.635.835a4941.78 4941.78 0 01-3.507 3.507c.095.087-.056-.05.01.009-.526.524-1.068 1.066-1.61 1.61l-.527-.411v1.685l-1.073-.883.278 1.867c-.799 1.035-1.76 2.28-2.8 3.63-.469-.343-.788-.579-1.072-.788l-3.526 4.122c.459.23.882.44 1.5.745l-1.533 1.943c.075.26.075.5.194.633 1.949 2.185 4.26 4.138 5.78 6.586 1.712 2.756 3.85 5.602 2.855 9.354M223.453 77.426l.504-.504c-.115-.148-.212-.318-.35-.444-.829-.757-1.877-1.406-2.548-2.147-.658-.725-1.395-1.278-2.061-1.942-.886-.884-1.874-2.149-1.921-3.286-.084-2.034-.207-4.075.277-6.207.834-3.68 2.762-6.467 5.315-9.01 3.24-3.228 6.471-6.467 9.872-9.867-1.291-1.111-1.357-3.21-3.4-3.618-.86-1.67-1.715-3.339-2.574-5.009-.792-1.54-.65-3.203-.642-4.85.007-1.171.003-2.344.003-3.516 1.078-1.376 2.156-2.753 3.217-4.104h5.33l-2.302 3.93c1.972 1.432 2.696-1.67 4.428-.724 1.08 1.48-.93 2.177-1.568 3.609l2.818-.677c.519 1.52.26 2.85-.558 4.28l1.299.505c.37.396-.398.454-.528 1.038l1.912 2.928c5.28-5.541 12.013-9.255 16.13-15.583h3.211l-.76 3.24 2.52-.888v2.482c.514.135.803.21 1.091.287.081.18.208.354.23.54.04.315-.042.648.02.957.65 3.323-1.004 5.96-2.74 8.45-1.878 2.694-4.058 5.178-6.262 7.948 1.573 1.888 4.087 2.805 6.3 4.568l.187 1.346c.586.733 1.534 1.443 1.803 2.354.59 1.995 2.046 3.854 1.056 6.43-.242.111-.774.373-1.32.605-.544.231-1.1.43-1.718.671-.847-.861-2.76-.588-2.504-2.264l-5.339-1.545-1.118-1.943h-3.534l-.243-1.026c-1.307-1.006-2.405.178-3.17.382-1.043 1.211-1.843 2.138-2.726 3.16l-.809-.614-1.28 1.81.332.43c-1.483.371-1.612 1.861-2.264 3.088l-1.366-.842-.277 1.73-1.022.277c-.137 1.296-.322 2.876-2.243 2.445-.646.837-1.728 1.615-1.654 2.262.22 1.947-1.409 2.877-1.854 4.4-.21 1.922-.18 1.921.417 3.206-1.393 1.11-2.965 1.858-4.771 2.319l-.846-1.067M36.311 41.271l-1.882.234.914 1.011c-.794 1.478-2.3 2.364-3.32 3.655l.5.5-2.32 1.82c-.383 1.008.434 2.145-.912 2.77 1.192.798 2.282 1.512 3.353 2.251 3.36 2.321 6.952 4.312 9.722 7.438 1.586 1.79 3.08 3.52 3.108 6.089.005.433.445.86.795 1.495l-3.003 1.9c-6.387-3.743-12.99-7.077-19.045-11.964-.435.247-1.383.456-1.557.943-.694 1.929-2.053 3.283-3.436 4.664-.17.17-.106.57-.151.865-.593.066-1.096.12-1.865.204l.493 1.687c-1.232 1.032-2.152 2.567-2.637 4.472-.281 1.107-1.342 2.014-2.292 3.35v6.954l-1.682.106-.412 1.162H8.476L7.37 79.67l-1.956.86c-.15-.466-.269-.83-.387-1.193-.181-.075-.38-.242-.544-.211-1.354.257-2.28-.889-2.447-1.617-.68-2.966-2.6-5.9-.756-9.084.034-3.155 1.992-5.561 3.102-8.304.363-.896 1.921-.738 1.499-2.285-.174-.636.98-1.644 1.549-2.471.515-.75 1-1.528 1.592-2.212.696-.804 1.543-1.477 2.233-2.285.574-.673 1.016-1.458 1.578-2.284-3.889-2.92-6.267-7.07-8.993-10.938-.874-3.743-2.384-7.378-1.795-11.761l3.289-3.778c1.37.281 2.911-.568 4.163.86L7.04 26.278l.644.685c1.737.36 2.373-2.168 4.187-1.583.27.524.538 1.048.82 1.593l-1.87 1.198 1.013 1.014c.906-.938 1.786-.95 2.85.333-.096.714.458 1.747-.61 2.579l1.498.72-1.427 1.916 1.578.56c-.713.193-1.051.283-1.643.442.062.52-.062 1.231.234 1.63 1.225 1.647 2.577 3.199 4.026 4.96.798-.716 1.41-1.248 2.003-1.801 3.5-3.264 6.43-7.179 10.774-9.49-.024-1.203 1.235-1.118 1.777-1.763.614-.728 1.296-1.4 1.736-1.87h2.15c-.975 1.435-2.636 2.246-2.094 4.313l4.406-2.626-.392 2.507c.58.292 1.44.73 2.366 1.196l-.67 1.389.929.193c.032.125.154.337.095.416-.78 1.05-1.822 1.98-2.319 3.145-.622 1.462-1.993 2.12-2.79 3.337M94.723 73.935c2.55-3.129 4.703-5.729 6.812-8.365 1.997-2.497 3.704-5.194 5.256-7.957l-.72-.888 1.647-1.872h2.109c.788.789 1.423 1.914 2.325 2.201 1.102.35 1.258 1.231 1.703 1.89 1.542 2.28 2.614 4.593 1.43 7.564a384.481 384.481 0 01-2.226 5.474c-.227.548-.394 1.122-.684 1.956l-1.615 1.617v2.014l-3.47 6.29c1.592 1.082 3.059 2.125 4.57 3.099 2.995 1.93 5.472 4.327 6.951 7.62.318.71.464 1.497.795 2.603-.114.253-.392.873-.7 1.554l-1.927.898c-1.505-.52-2.835-.909-4.107-1.438-1.273-.528-2.488-1.197-3.728-1.803-.211-1.853-2.323-1.104-3.193-2.365-.713-1.034-2.3-1.465-3.691-2.276-4.17 4.255-7.843 8.902-11.213 13.798-.26.375-.176.987-.251 1.488-1.47 1.13-2.922.958-4.38-.07v-1.017l-5.61-3.362c-.93-1.089-.457-2.8-1.062-4.123-.675-1.474-.105-2.9-.36-3.985 2.116-4.718 4.622-8.85 8.209-12.416v-2.178c-2.074-1.444-3.362-3.696-4.667-5.904-.438-.74-.506-1.708-.706-2.578-.407-1.772-1.016-3.486-.962-5.369.104-3.6 2.148-6.168 5.585-7.46 2.167-.814 4.272-.405 6.602-.634-1.254 2.597-4.259 2.375-6.016 4.552 3.03-.134 4.876-2.987 7.965-2.443l-.366 2.224 2.2.778v4.063c-.825 1.437-1.73 2.871-2.467 4.387-.238.487-.038 1.189-.038 2.433M148.8 34.1l-3.502 4.391v4.106l-3.457 1.39c-1.462-1.42-2.055-3.304-2.523-5.084-.626.234-1.18.44-2.003.744-.645-.928-1.43-1.748-1.854-2.724-1.267-2.926-1.166-6.05-1.027-8.988l1.597-3.644c-.885-.132-1.669-.01-1.994-.338-2.068-2.09-4.108-4.216-6.003-6.46-1.02-1.211-2.098-2.58-2.505-4.055-.594-2.16-.608-4.478-.888-6.89.973-1.369 1.765-2.973 3.002-4.078 1.137-1.016 2.754-1.495 4.507-2.388.408.443.806.87 1.209 1.306l-3.36 3.235.785.785c1.43-1.043 2.855-2.408 5.18-1.508-.576.791-1.026 1.406-1.816 2.487l2.49-.97 1.314 1.982-2.412 2.415c.54.11.83.171 1.314.271-.725 1.223-.315 2.914-2.185 3.538 1.856 2.282 3.92 3.54 6.016 4.932l20.949-17.371h3.087c-.541 1.084-.97 1.949-1.406 2.824.927.708 1.66-.087 2.482-.443 2.372 2.214 2.93 4.978 2.443 8.062l-3.032 3.89c.067.06.22.204.643.595l-1.667.213.645.692h-1.191c-2.193 4.127-5.9 6.935-8.614 10.695 3.72 2.072 7.881 3.614 11.817 5.96.12.59.255 1.262.413 2.055l1.196-1.265c1.584.214 1.55 2.035 2.88 2.701 1.164.584 1.844 2.136 2.75 3.274v3.8l-1.032 1.03c-3.295-.351-6.02-2.229-9.02-3.747l-.38.345c-2.1-.519-3.352-2.772-5.774-2.435-1.129-1.451-2.985-1.564-4.433-2.42-1.463-.863-2.88-1.8-4.642-2.91M241.988 85.226l1.944 1.097-.565 3.385c.536.932.986 2.35 2.613 2.923.729-1.016 1.176-2.179 2.578-2.747.985-.4 1.563-1.802 2.318-2.76.83-1.055 1.981-1.776 2.635-3.06.55-1.081 1.73-1.82 2.475-2.827.768-1.041 1.35-2.22 2.013-3.337h3.607c.19 1.011.502 2.01-.689 3.055l2.551.116.907 4.166-1.319.515c.046.293.04.6.144.86.891 2.202.746 2.958-.968 4.658-.716.709-1.015 1.812-.724 2.5.457 1.082-.917.666-.268 1.664l-1.277-1.052v1.782l-1.954.375v1.75c-.82.852-1.397 1.455-1.878 1.957l3 2.939v2.41c.69.69 1.412 1.411 2.151 2.153-.23.408-.376.665-.633 1.117l1.279 2.599-1.947 4.063h-2.667c-3.107-1.777-6.12-3.503-9.123-5.224l-1.315 2.033-1.716-.837v2.978l-2.929-1.09.947 1.292-2.19 2.057-.455-2.759 1.276-.44.168-.888-1.15-.397c.137-.565.277-1.135.514-2.102l-.958.877-4.008-.75c-.209-.4-.48-.924-.8-1.536.242-.937.516-2 .794-3.084l2.214.367.099-.353-2.39-1.2c.43-.885.855-1.766 1.299-2.684-2.105-3.575-4.4-6.95-5.696-10.834-.778-2.675.143-5.319.528-7.952.3-2.047 1.992-3.495 3.845-4.531.264-.148.514-.318.937-.581h3.182l1.272 1.273-1.642 1.64v1.968l2.157-.558 1.294 1.21-1.48 1.804M49.541 118.093c.362.36.663.662 1.09 1.09l-5.86 5.01.133.337c.414-.121.92-.132 1.222-.385.563-.472 1.006-1.083 1.78-1.236 1.367-.77 2.734-1.543 4.063-2.294 1.16.938.313 1.678-.185 2.815.759-.287 1.25-.474 1.78-.676.23.232.532.533.835.836l.001 3.85c-.373.365-.753.738-1.156 1.13.06.147.074.352.184.431.727.546 1.453 1.099 2.22 1.584.826.521 1.98.672 2.012 2.006.003.153.264.327.435.448.658.463 1.43.814 1.966 1.388.535.572.839 1.359 1.38 2.283 0 .541 0 1.394-.002 2.246l-1.497 1.498-12.01-4.292-2.796 1.49-.12-.194-2.718 2.717-.084 1.38c-1.68 1.615-3.44 3.308-4.858 4.674-.712 2.21-.351 4.479-3.295 4.944-.609-.973-2.796-1.13-2.297-3.4l-2.16-.627-.77.516-2.589-2.74-.847-7.239 8.055-8.71c-1.086-.68-2.207-1.25-3.167-2.018-.992-.796-1.83-1.786-2.76-2.716.257-.83.52-1.676.8-2.59l-1.355-.466v-2.161l.667-.668 3.064-.61 9.98 5.6c3.373-1.283 5.559-4.241 8.86-5.251"/></g></svg>