<svg width="169" height="162" viewBox="0 0 169 162" xmlns="http://www.w3.org/2000/svg"><g fill="#000" fill-rule="evenodd"><path d="M155.595 42.007c-.517 2.214-1.628 3.116-3.435 3.5l-1.063-1.428-5.03-3.08c0-.82.159-1.415-.035-1.855-.374-.85-.88-1.71-.575-2.607.474-1.389.977-2.828 1.79-4.025 1.218-1.79 2.715-3.388 4.004-4.959h1.687c1.444 1.255 2.777 2.152 3.76 3.34.99 1.197 1.63 2.682 2.486 4.145-2.076 2.27-3.882 4.485-3.589 6.969M93.907 1.971c.246 1.377 1.81 2.043 1.897 3.678.04.759.427 1.374-.072 2.204-.545.912-.799 1.997-1.178 3.004l-.43-.373c-1.033.817-1.195 1.013-1.918 2.876-1.65.426-3.454.892-5.505 1.42-1.224-.834-2.945-1.046-4.354-1.995-.331-2.365-3.065-3.954-2.075-6.782l1.585-1.628c.318.188.634.429.988.578 1.533.644 2.787-.11 3.878-.998 1.147-.932 2.124-2.075 3.258-3.21h2.252l-1.36 2.107c1.539 1.075 1.702-1.002 3.034-.88M165.006 72.344h1.02l2.382 3.007c.154 1.639.317 3.49-1.192 4.964.128 1.35-.895 2.443-.736 3.874.117 1.038-.231 2.209-.658 3.196-.229.532-1.06.805-1.62 1.195l-5.328-3.618c-1.95-3.317-.8-5.833-.011-8.382 1.01-3.269 1.829-4.319 4.962-6.155l1.181 1.92M25.91 49.016c.442 2.25-1.312 4.5-4.388 5.975l-.595-.523-.716.611-4.144-1.666-1.356-2.381c.439-.402.762-.847 1.199-1.056.34-.162.819-.032 1.273-.032l.593-2.9-2.465-4.302 1.892-1.759h1.606c2.602 1.91 5.705 3.313 7.1 8.033M68.187 121.201l1.497-2.085 2.536-.93.416 2.218 1.316-.399c1.352-.38.568 1.582 1.893 1.733.582.066 1.025 1.349 1.703 2.324.33 1.396-.097 2.897-1.191 4.283l.59.667-.962.863c-.174-.153-.55-.53-.58-.503-1.67 1.432-2.978-.086-4.369-.566-1.199-.414-2.324-1.048-3.45-1.568l-2.078-4.162c-.093-2.767.107-3.265 2.211-4.824.154.967.288 1.807.468 2.95M117.095 114.882l-3.036-1.135v-.71c-1.417-.457-2.824-.909-4.31-1.386-.35-1.864-.657-3.51-.917-4.9 1.076-1.283 2.62-1.373 3.03-2.96.162-.632 1.407-.985 2.506-1.686l.673 1.649c-.019.047-.206.54-.394 1.035l.47.288c.317-.516.636-1.032 1.099-1.782 1.145 1.529 2.488 2.637 2.842 4 .322 1.242 1.154 2.442.605 4.095-.548 1.649-2.699 1.468-2.568 3.492M45.897 79.998h-3.249c-.718 1.01.523 2.623-2.095 3.226-2.285-.087-4.838-1.32-6.487-4.171v-2.585l2.165-2.164.736.576c.919-1.11 2.146-.43 2.962-.58 2.57 1.286 5 2.418 5.968 5.698M27.342 133.146H28.7l.434 1.298c1.25-.17 2.94-.106 3.487.953.673 1.299 2.388 1.202 2.71 3.124v5.211c-2.111 1.35-3.463-1.404-5.32-.96-1.324-.84-1.85-2.323-3.14-3.183-.697-.465-1.229-1.549-1.14-2.656.059-.734.01-1.475.01-2.186l1.601-1.6zM1.455 98.591c.513-1.914-2.132-2.706-1.196-4.631l2.598-2.603c1.576.79 3.409 1.542 5.06 2.582 1.697 1.068 2.28 3.019 3.238 4.721l-.916 2.361c-3.176.664-5.777-.89-8.784-2.43M102.32 152.485c-1.222-1.612-2.92-1.656-4.547-2.185l-1.577-2.288v-5.048c.41-.307 1-.748 2.007-1.504.718.146 1.978.397 3.073.617 2.727 1.386 2.75 4.201 3.932 6.62l-2.888 3.788M46.335 111.224l1.044.266v3.06l-1.433 1.935-5.342-1.448-.277-1.601-.944-.208c-.934-2.454 1.4-3.986 1.787-6.07 1.404.068 1.79-2.263 3.614-1.36l.289.968 1.56.23 1.445 1.445-1.743 2.783M132.783 75.054c.573-.248 1.001-.435 1.44-.626 1.32 2.243 3.89 4.006 3.464 7.426l-3.432 1.903-2.473-1.263-2.418-3.062-.79-4.745 2.127-1.641h1.797l.285 2.008M140.847 126.967l-.719 1.322c.988.517 1.777.674 2.555-.502.093.602.234.919.165 1.178-.177.657-.45 1.287-.716 2.019 1.11-.621 1.196-.71 1.85-2.001.526 1.434 1.205 2.588 1.318 3.797.106 1.122-.392 2.3-.627 3.479-.378-.164-.846-.485-.95-.394-.94.833-1.878.71-2.831.1-.956-.612-1.75-.337-2.383.65l-1.189-.953c.17-.687.343-1.394.526-2.144l-1.446-.689.91-4.082 3.22-2.153.317.373zM100.619 43.514c-.948-.568-1.687-1.04-2.452-1.462-1.98-1.092-1.977-1.086-2.668-3.28-.176-.558-.37-1.121-.648-1.633-.376-.695-.9-1.315-1.248-2.023-.3-.609-.442-1.295-.669-1.992.603-.784 1.24-1.557 2.072-1.898 4.236 2.567 4.215 1.809 6.908 9.097l-1.295 3.191M127.295 10.21l1.326.15c1.874 2.387 3.271 4.9 2.633 7.861-.985.134-1.846.253-2.784.38l-2.007-2.176c-1.103-.439-2.025-.51-2.334-.983-1.094-1.673-1.33-3.596-1.005-5.74l2.648-1.565 1.523 2.072M125.569 40.356v1.763l2.458.24v1.444c3.067 1.087 2.7 3.547 2.65 6.016-3.684.654-5.925-1.586-8.053-3.796l-.928-3.809c.72-1.368 1.986-1.922 3.873-1.858M55.834 44.97l2.195-1.32c1.937 1.67 4.703 2.369 5.855 4.46.33 1.03.542 1.684.836 2.6l-.793 1.59c-.555.257-.91.42-1.356.629-.91-.384-1.955-.823-3-1.262-2.312-1.469-3.887-3.495-3.737-6.696M51.4 161.096c-.662-.972-1.342-1.964-1.967-2.88l.417-1.475-.367-.154 2.75-3.65c3.491.77 4.262 3.652 5.271 6.076l-1.38 2.736-4.724-.653M40.886 21.03l1.85-1.815c1.556.09 2.986-.094 4.328 1.618 1.564 1.994 2.284 2.174 2.724 3.546.028.09.143.152.218.227-.812.74-.588 2.544-2.722 2.247-.713-.717-1.81-1.171-3.208-1.357-1.11-.147-2.065-1.426-3.193-2.28l.794-1.127-.79-1.06"/></g></svg>